<svg width="74" height="76" viewBox="0 0 74 76" fill="none" xmlns="http://www.w3.org/2000/svg">
<path d="M65.9288 29.2441C65.9288 45.0376 52.9785 57.8407 37.0035 57.8407C21.0284 57.8407 8.07812 45.0376 8.07812 29.2441C8.07812 13.4506 21.0284 0.647461 37.0035 0.647461C52.9785 0.647461 65.9288 13.4506 65.9288 29.2441Z" fill="url(#paint0_radial_1330_16723)"/>
<path fill-rule="evenodd" clip-rule="evenodd" d="M25.8659 21.0843C27.1983 20.4443 28.7314 20.3146 29.7415 20.3855C30.0111 20.4045 30.2141 20.6339 30.1947 20.898C30.1754 21.162 29.9411 21.3607 29.6714 21.3418C28.7808 21.2792 27.4322 21.3999 26.2971 21.945C25.1881 22.4777 24.2958 23.4026 24.1876 25.0016C24.1331 25.8064 24.3233 26.415 24.6452 26.884C24.9712 27.359 25.4544 27.7225 26.0328 27.9925C27.1584 28.5179 28.565 28.6518 29.5624 28.6041C30.0826 28.3012 30.7284 27.7907 31.1078 27.1931C31.3059 26.881 31.4181 26.5663 31.4234 26.2579C31.4286 25.9575 31.3335 25.6245 31.0489 25.2621C31.0378 25.248 31.0275 25.2332 31.018 25.2179C30.757 24.7949 30.2762 24.2345 29.7045 23.9135C29.4238 23.756 29.1387 23.6658 28.857 23.6615C28.5966 23.6575 28.3117 23.7262 28.0043 23.9246C27.6991 24.2972 27.3763 24.8267 27.2846 25.2829C27.238 25.5145 27.2606 25.6783 27.3205 25.7901C27.3692 25.8811 27.4731 25.995 27.722 26.0844C28.0312 26.0476 28.4427 25.9716 28.7795 25.855C28.9696 25.7892 29.1042 25.7211 29.1821 25.6614C29.1998 25.6479 29.2113 25.6375 29.2186 25.6301C29.2398 25.3845 29.4501 25.1916 29.7064 25.1916C29.9768 25.1916 30.196 25.4063 30.196 25.671C30.196 26.0209 29.9807 26.267 29.7852 26.4167C29.5874 26.5681 29.3401 26.6778 29.1059 26.7589C28.6324 26.9228 28.0817 27.0136 27.7187 27.0493C27.6548 27.0556 27.5901 27.0495 27.5286 27.0313C27.0279 26.8836 26.6581 26.6175 26.4534 26.2354C26.2545 25.864 26.2517 25.457 26.3239 25.0977C26.4656 24.3932 26.9312 23.6888 27.293 23.2617C27.3207 23.229 27.3527 23.2001 27.3882 23.1757C27.8751 22.8404 28.3784 22.6954 28.8722 22.7029C29.3594 22.7103 29.806 22.8655 30.1914 23.0818C30.9406 23.5024 31.5227 24.1895 31.8418 24.6992C32.2376 25.2117 32.4115 25.7457 32.4024 26.274C32.3933 26.8017 32.2027 27.2844 31.9393 27.6992C31.4193 28.5183 30.5654 29.1537 29.9461 29.4941C29.8823 29.5292 29.8112 29.5499 29.7381 29.5545C28.6359 29.6245 26.9816 29.4975 25.6115 28.8579C24.9205 28.5353 24.2812 28.0725 23.8325 27.4187C23.3797 26.7589 23.143 25.9362 23.2106 24.9382C23.3464 22.9317 24.5074 21.7368 25.8659 21.0843ZM29.2298 25.617C29.2299 25.617 29.2293 25.618 29.2277 25.6201C29.2288 25.618 29.2296 25.617 29.2298 25.617Z" fill="black"/>
<path fill-rule="evenodd" clip-rule="evenodd" d="M44.2683 21.0843C45.6007 20.4443 47.1337 20.3146 48.1438 20.3855C48.4135 20.4045 48.6164 20.6339 48.5971 20.898C48.5777 21.162 48.3434 21.3607 48.0737 21.3418C47.1831 21.2792 45.8345 21.3999 44.6994 21.945C43.5905 22.4777 42.6981 23.4026 42.5899 25.0016C42.5354 25.8064 42.7257 26.415 43.0475 26.884C43.3735 27.359 43.8568 27.7225 44.4352 27.9925C45.5608 28.5179 46.9673 28.6518 47.9647 28.6041C48.485 28.3012 49.1307 27.7907 49.5101 27.1931C49.7082 26.881 49.8205 26.5663 49.8258 26.2579C49.831 25.9575 49.7359 25.6245 49.4513 25.2621C49.4402 25.248 49.4298 25.2332 49.4204 25.2179C49.1593 24.7949 48.6785 24.2345 48.1068 23.9135C47.8262 23.756 47.541 23.6658 47.2593 23.6615C46.999 23.6575 46.714 23.7262 46.4066 23.9246C46.1015 24.2972 45.7786 24.8267 45.6869 25.2829C45.6404 25.5145 45.663 25.6783 45.7229 25.7901C45.7716 25.8811 45.8755 25.995 46.1244 26.0844C46.4336 26.0476 46.845 25.9716 47.1819 25.855C47.3719 25.7892 47.5065 25.7211 47.5845 25.6614C47.6021 25.6479 47.6137 25.6375 47.621 25.6301C47.6422 25.3845 47.8525 25.1916 48.1088 25.1916C48.3792 25.1916 48.5983 25.4063 48.5983 25.671C48.5983 26.0209 48.383 26.267 48.1876 26.4167C47.9898 26.5681 47.7425 26.6778 47.5082 26.7589C47.0348 26.9228 46.484 27.0136 46.1211 27.0493C46.0571 27.0556 45.9925 27.0495 45.9309 27.0313C45.4303 26.8836 45.0604 26.6175 44.8558 26.2354C44.6569 25.864 44.654 25.457 44.7263 25.0977C44.8679 24.3932 45.3335 23.6888 45.6954 23.2617C45.7231 23.229 45.7551 23.2001 45.7906 23.1757C46.2775 22.8404 46.7808 22.6954 47.2745 22.7029C47.7617 22.7103 48.2084 22.8655 48.5938 23.0818C49.343 23.5024 49.925 24.1895 50.2442 24.6992C50.64 25.2117 50.8139 25.7457 50.8047 26.274C50.7956 26.8017 50.605 27.2844 50.3417 27.6992C49.8217 28.5183 48.9677 29.1537 48.3485 29.4941C48.2846 29.5292 48.2135 29.5499 48.1404 29.5545C47.0383 29.6245 45.3839 29.4975 44.0138 28.8579C43.3229 28.5353 42.6836 28.0725 42.2349 27.4187C41.782 26.7589 41.5454 25.9362 41.6129 24.9382C41.7488 22.9317 42.9098 21.7368 44.2683 21.0843ZM47.6321 25.617C47.6322 25.617 47.6316 25.618 47.63 25.6201C47.6312 25.618 47.632 25.617 47.6321 25.617Z" fill="black"/>
<path d="M40.9446 40.4197C40.9446 43.1427 39.0314 45.3502 36.6715 45.3502C34.3116 45.3502 32.3984 43.1427 32.3984 40.4197C32.3984 37.6967 34.3116 35.4893 36.6715 35.4893C39.0314 35.4893 40.9446 37.6967 40.9446 40.4197Z" fill="#FF8989"/>
<path d="M66.3359 65.1372C66.3359 65.815 66.2104 66.4467 65.9593 67.0324C65.7083 67.614 65.3422 68.1181 64.8611 68.5449C64.3799 68.9716 63.8109 69.2938 63.1541 69.5114L62.5391 68.57C63.1164 68.3817 63.6185 68.1161 64.0452 67.773C64.472 67.4257 64.7983 67.0241 65.0243 66.568C65.2544 66.112 65.3694 65.635 65.3694 65.1372V64.2523H66.3359V65.1372ZM66.5744 65.1246C66.5744 65.5932 66.681 66.0409 66.8944 66.4676C67.112 66.8902 67.4258 67.2667 67.8358 67.5973C68.25 67.9236 68.7374 68.1746 69.298 68.3503L68.7269 69.2729C68.0784 69.0721 67.5178 68.7666 67.045 68.3566C66.5723 67.9424 66.2104 67.4592 65.9593 66.9069C65.7125 66.3505 65.5891 65.7564 65.5891 65.1246V64.2523H66.5744V65.1246ZM68.9905 64.905H62.9093V63.9322H68.9905V64.905ZM71.4945 69.3921H70.3084V63.2168H71.4945V69.3921ZM73.1325 66.7438H71.1619V65.7522H73.1325V66.7438ZM65.4698 71.1682H70.3084V69.9005H71.4945V74.3249H64.2837V69.9005H65.4698V71.1682ZM70.3084 73.3584V72.0907H65.4698V73.3584H70.3084Z" fill="black"/>
<path d="M61.8053 69.9252H51.5508V68.9588H61.8053V69.9252ZM57.268 69.2286H56.0756V67.3396H57.268V69.2286ZM60.5439 74.4626H59.3515V71.8707H52.6867V70.9294H60.5439V74.4626ZM54.0799 64.6975H59.2888V63.4863H60.4686V67.7413H52.9001V63.4863H54.0799V64.6975ZM59.2888 66.7936V65.5887H54.0799V66.7936H59.2888Z" fill="black"/>
<path d="M46.1309 76.0003H45.0703L45.7355 72.5361H47.1476L46.1309 76.0003Z" fill="black"/>
<path d="M44.2961 70.1322H34.0039V69.172H44.2961V70.1322ZM39.7337 69.787H38.5601V67.7537H39.7337V69.787ZM42.997 66.304H36.5079V67.7411H35.3281V65.438H41.8046V64.4652H35.2967V63.5176H42.997V66.304ZM43.2292 68.2307H35.3281V67.3081H43.2292V68.2307ZM39.1375 70.8037C39.97 70.8037 40.6771 70.8748 41.2587 71.0171C41.8444 71.1552 42.2921 71.3602 42.6017 71.6321C42.9113 71.9041 43.0661 72.2367 43.0661 72.6299C43.0661 73.019 42.9113 73.3496 42.6017 73.6215C42.2921 73.8935 41.8444 74.0985 41.2587 74.2365C40.6771 74.3788 39.97 74.4499 39.1375 74.4499C38.2965 74.4499 37.5811 74.3788 36.9912 74.2365C36.4012 74.0985 35.9536 73.8935 35.6481 73.6215C35.3427 73.3496 35.19 73.019 35.19 72.6299C35.19 72.2367 35.3427 71.9041 35.6481 71.6321C35.9536 71.3602 36.4012 71.1552 36.9912 71.0171C37.5811 70.8748 38.2965 70.8037 39.1375 70.8037ZM39.1375 71.7137C38.5392 71.7137 38.0371 71.7472 37.6313 71.8141C37.2255 71.881 36.92 71.9835 36.715 72.1216C36.51 72.2597 36.4075 72.4291 36.4075 72.6299C36.4075 72.8266 36.5121 72.996 36.7213 73.1383C36.9305 73.2805 37.2359 73.3872 37.6376 73.4583C38.0434 73.5295 38.5434 73.565 39.1375 73.565C39.7232 73.565 40.2169 73.5295 40.6185 73.4583C41.0244 73.3872 41.3319 73.2805 41.5411 73.1383C41.7503 72.996 41.8549 72.8266 41.8549 72.6299C41.8549 72.4291 41.7503 72.2597 41.5411 72.1216C41.3319 71.9835 41.0285 71.881 40.6311 71.8141C40.2336 71.7472 39.7357 71.7137 39.1375 71.7137Z" fill="black"/>
<path d="M32.5812 74.4629H31.4327V63.2168H32.5812V74.4629ZM30.0332 68.501H28.094V67.5094H30.0332V68.501ZM30.3972 73.9295H29.2802V63.449H30.3972V73.9295ZM28.4016 66.0472H22.8789V65.087H28.4016V66.0472ZM25.6214 66.7249C26.0774 66.7249 26.4875 66.8358 26.8514 67.0575C27.2196 67.2751 27.5041 67.5826 27.7049 67.9801C27.91 68.3734 28.0125 68.821 28.0125 69.3231C28.0125 69.8251 27.91 70.2749 27.7049 70.6724C27.5041 71.0657 27.2196 71.3732 26.8514 71.5949C26.4875 71.8166 26.0774 71.9317 25.6214 71.9401C25.1696 71.9317 24.7616 71.8166 24.3976 71.5949C24.0378 71.3732 23.7554 71.0657 23.5504 70.6724C23.3454 70.2749 23.2429 69.8251 23.2429 69.3231C23.2429 68.821 23.3454 68.3734 23.5504 67.9801C23.7554 67.5826 24.0378 67.2751 24.3976 67.0575C24.7616 66.8358 25.1696 66.7249 25.6214 66.7249ZM25.6214 67.7353C25.362 67.7353 25.1298 67.8023 24.9248 67.9362C24.724 68.07 24.5671 68.2562 24.4541 68.4947C24.3412 68.7332 24.2847 69.0093 24.2847 69.3231C24.2847 69.6369 24.3412 69.9151 24.4541 70.1578C24.5671 70.4004 24.724 70.5887 24.9248 70.7226C25.1298 70.8565 25.362 70.9234 25.6214 70.9234C25.8808 70.9234 26.113 70.8565 26.318 70.7226C26.5272 70.5887 26.6883 70.4004 26.8012 70.1578C26.9184 69.9151 26.977 69.6369 26.977 69.3231C26.977 69.0093 26.9184 68.7332 26.8012 68.4947C26.6883 68.2562 26.5272 68.07 26.318 67.9362C26.113 67.8023 25.8808 67.7353 25.6214 67.7353ZM26.2427 65.6581H25.0503V63.5118H26.2427V65.6581Z" fill="black"/>
<path d="M22.0813 70.1322H11.7891V69.172H22.0813V70.1322ZM17.5188 69.787H16.3452V67.7537H17.5188V69.787ZM20.7822 66.304H14.2931V67.7411H13.1132V65.438H19.5898V64.4652H13.0819V63.5176H20.7822V66.304ZM21.0144 68.2307H13.1132V67.3081H21.0144V68.2307ZM16.9226 70.8037C17.7552 70.8037 18.4623 70.8748 19.0438 71.0171C19.6296 71.1552 20.0772 71.3602 20.3868 71.6321C20.6964 71.9041 20.8512 72.2367 20.8512 72.6299C20.8512 73.019 20.6964 73.3496 20.3868 73.6215C20.0772 73.8935 19.6296 74.0985 19.0438 74.2365C18.4623 74.3788 17.7552 74.4499 16.9226 74.4499C16.0817 74.4499 15.3662 74.3788 14.7763 74.2365C14.1864 74.0985 13.7387 73.8935 13.4333 73.6215C13.1279 73.3496 12.9752 73.019 12.9752 72.6299C12.9752 72.2367 13.1279 71.9041 13.4333 71.6321C13.7387 71.3602 14.1864 71.1552 14.7763 71.0171C15.3662 70.8748 16.0817 70.8037 16.9226 70.8037ZM16.9226 71.7137C16.3243 71.7137 15.8223 71.7472 15.4164 71.8141C15.0106 71.881 14.7052 71.9835 14.5002 72.1216C14.2952 72.2597 14.1927 72.4291 14.1927 72.6299C14.1927 72.8266 14.2973 72.996 14.5065 73.1383C14.7156 73.2805 15.0211 73.3872 15.4227 73.4583C15.8285 73.5295 16.3285 73.565 16.9226 73.565C17.5084 73.565 18.002 73.5295 18.4037 73.4583C18.8095 73.3872 19.117 73.2805 19.3262 73.1383C19.5354 72.996 19.64 72.8266 19.64 72.6299C19.64 72.4291 19.5354 72.2597 19.3262 72.1216C19.117 71.9835 18.8137 71.881 18.4162 71.8141C18.0188 71.7472 17.5209 71.7137 16.9226 71.7137Z" fill="black"/>
<path d="M10.3664 74.4629H9.21789V63.2168H10.3664V74.4629ZM7.8184 68.501H5.8792V67.5094H7.8184V68.501ZM8.1824 73.9295H7.06531V63.449H8.1824V73.9295ZM6.18671 66.0472H0.664062V65.087H6.18671V66.0472ZM3.40656 66.7249C3.8626 66.7249 4.27261 66.8358 4.6366 67.0575C5.00478 67.2751 5.28928 67.5826 5.4901 67.9801C5.69511 68.3734 5.79762 68.821 5.79762 69.3231C5.79762 69.8251 5.69511 70.2749 5.4901 70.6724C5.28928 71.0657 5.00478 71.3732 4.6366 71.5949C4.27261 71.8166 3.8626 71.9317 3.40656 71.9401C2.95471 71.9317 2.54678 71.8166 2.18279 71.5949C1.82298 71.3732 1.54057 71.0657 1.33557 70.6724C1.13056 70.2749 1.02806 69.8251 1.02806 69.3231C1.02806 68.821 1.13056 68.3734 1.33557 67.9801C1.54057 67.5826 1.82298 67.2751 2.18279 67.0575C2.54678 66.8358 2.95471 66.7249 3.40656 66.7249ZM3.40656 67.7353C3.14716 67.7353 2.91496 67.8023 2.70995 67.9362C2.50913 68.07 2.35224 68.2562 2.23927 68.4947C2.12631 68.7332 2.06983 69.0093 2.06983 69.3231C2.06983 69.6369 2.12631 69.9151 2.23927 70.1578C2.35224 70.4004 2.50913 70.5887 2.70995 70.7226C2.91496 70.8565 3.14716 70.9234 3.40656 70.9234C3.66596 70.9234 3.89816 70.8565 4.10317 70.7226C4.31236 70.5887 4.47344 70.4004 4.5864 70.1578C4.70355 69.9151 4.76212 69.6369 4.76212 69.3231C4.76212 69.0093 4.70355 68.7332 4.5864 68.4947C4.47344 68.2562 4.31236 68.07 4.10317 67.9362C3.89816 67.8023 3.66596 67.7353 3.40656 67.7353ZM4.02786 65.6581H2.83547V63.5118H4.02786V65.6581Z" fill="black"/>
<path fill-rule="evenodd" clip-rule="evenodd" d="M36.4692 44.947C38.3226 44.947 40.1329 43.1895 40.1329 40.6294C40.1329 38.0694 38.3226 36.3119 36.4692 36.3119C34.6158 36.3119 32.8055 38.0694 32.8055 40.6294C32.8055 43.1895 34.6158 44.947 36.4692 44.947ZM36.4692 46.0001C39.1058 46.0001 41.2431 43.5956 41.2431 40.6294C41.2431 37.6633 39.1058 35.2588 36.4692 35.2588C33.8327 35.2588 31.6953 37.6633 31.6953 40.6294C31.6953 43.5956 33.8327 46.0001 36.4692 46.0001Z" fill="black"/>
<defs>
<radialGradient id="paint0_radial_1330_16723" cx="0" cy="0" r="1" gradientUnits="userSpaceOnUse" gradientTransform="translate(37.0035 29.2441) rotate(90) scale(28.5966 28.9253)">
<stop stop-color="#53C1FF"/>
<stop offset="1" stop-color="#7ECDF9"/>
</radialGradient>
</defs>
</svg>
