<svg width="58" height="75" viewBox="0 0 58 75" fill="none" xmlns="http://www.w3.org/2000/svg">
<path d="M57.1933 29.332C57.1933 45.1255 44.3901 57.9286 28.5966 57.9286C12.8032 57.9286 0 45.1255 0 29.332C0 13.5385 12.8032 0.735352 28.5966 0.735352C44.3901 0.735352 57.1933 13.5385 57.1933 29.332Z" fill="url(#paint0_radial_1326_16649)"/>
<path d="M34.6929 70.3217H33.5068V68.6398H34.6929V70.3217ZM34.1156 63.4561C34.9607 63.4561 35.6824 63.5314 36.2807 63.682C36.879 63.8326 37.335 64.0543 37.6488 64.3472C37.9668 64.6359 38.1258 64.9852 38.1258 65.3953C38.1258 65.8095 37.9668 66.1609 37.6488 66.4496C37.335 66.7383 36.879 66.9579 36.2807 67.1085C35.6824 67.2592 34.9607 67.3386 34.1156 67.347C33.2704 67.3386 32.5466 67.2592 31.9442 67.1085C31.3459 66.9579 30.8856 66.7383 30.5635 66.4496C30.2455 66.1609 30.0865 65.8095 30.0865 65.3953C30.0865 64.9852 30.2455 64.6359 30.5635 64.3472C30.8856 64.0543 31.3459 63.8326 31.9442 63.682C32.5466 63.5314 33.2704 63.4561 34.1156 63.4561ZM34.1156 64.3535C33.5131 64.3535 33.0048 64.3953 32.5906 64.479C32.1805 64.5627 31.8688 64.6798 31.6555 64.8304C31.4421 64.9811 31.3354 65.1693 31.3354 65.3953C31.3354 65.6254 31.44 65.8178 31.6492 65.9726C31.8584 66.1274 32.1701 66.2446 32.5843 66.3241C32.9985 66.4036 33.5089 66.4475 34.1156 66.4559C34.7222 66.4475 35.2326 66.4036 35.6468 66.3241C36.061 66.2446 36.3727 66.1274 36.5819 65.9726C36.7953 65.8178 36.902 65.6254 36.902 65.3953C36.902 65.1693 36.7953 64.9811 36.5819 64.8304C36.3685 64.6798 36.0548 64.5627 35.6406 64.479C35.2264 64.3953 34.718 64.3535 34.1156 64.3535ZM39.2428 68.9536H28.9883V68.0122H39.2428V68.9536ZM37.9438 72.5496H31.4044V73.7985H30.2309V71.6898H36.7765V70.8049H30.212V69.9138H37.9438V72.5496ZM38.2701 74.47H30.2309V73.5474H38.2701V74.47Z" fill="black"/>
<path d="M28.1594 70.7166H17.8672V69.7251H28.1594V70.7166ZM23.5718 74.5825H22.3983V70.3275H23.5718V74.5825ZM22.9882 63.7568C23.7789 63.7568 24.4776 63.8593 25.0843 64.0643C25.6909 64.2652 26.1595 64.5559 26.4901 64.9367C26.8248 65.3132 26.9921 65.7567 26.9921 66.2671C26.9921 66.7566 26.8248 67.1876 26.4901 67.5599C26.1595 67.9323 25.6909 68.221 25.0843 68.426C24.4776 68.6268 23.7789 68.7272 22.9882 68.7272C22.1974 68.7272 21.4987 68.6268 20.8921 68.426C20.2896 68.221 19.821 67.9323 19.4863 67.5599C19.1516 67.1876 18.9843 66.7566 18.9843 66.2671C18.9843 65.7567 19.1516 65.3132 19.4863 64.9367C19.821 64.5559 20.2896 64.2652 20.8921 64.0643C21.4987 63.8593 22.1974 63.7568 22.9882 63.7568ZM22.9882 64.7233C22.4317 64.7233 21.9443 64.784 21.5259 64.9053C21.1076 65.0266 20.7833 65.2044 20.5532 65.4387C20.3273 65.673 20.2143 65.9492 20.2143 66.2671C20.2143 66.5726 20.3273 66.8403 20.5532 67.0704C20.7833 67.2964 21.1076 67.4721 21.5259 67.5976C21.9443 67.7189 22.4317 67.7796 22.9882 67.7796C23.5446 67.7796 24.0341 67.7189 24.4567 67.5976C24.8793 67.4721 25.2035 67.2964 25.4295 67.0704C25.6596 66.8403 25.7746 66.5726 25.7746 66.2671C25.7746 65.9492 25.6596 65.673 25.4295 65.4387C25.2035 65.2044 24.8793 65.0266 24.4567 64.9053C24.0341 64.784 23.5446 64.7233 22.9882 64.7233Z" fill="black"/>
<path fill-rule="evenodd" clip-rule="evenodd" d="M23.2847 21.339C23.4079 21.6426 23.2617 21.9886 22.9582 22.1118L14.0016 25.7484C13.698 25.8717 13.352 25.7255 13.2288 25.422C13.1055 25.1184 13.2517 24.7724 13.5553 24.6492L22.5119 21.0126C22.8154 20.8893 23.1614 21.0355 23.2847 21.339Z" fill="black"/>
<path fill-rule="evenodd" clip-rule="evenodd" d="M33.9927 21.339C33.8694 21.6426 34.0156 21.9886 34.3192 22.1118L43.2758 25.7484C43.5793 25.8717 43.9253 25.7255 44.0485 25.422C44.1718 25.1184 44.0256 24.7724 43.7221 24.6492L34.7655 21.0126C34.4619 20.8893 34.1159 21.0355 33.9927 21.339Z" fill="black"/>
<path fill-rule="evenodd" clip-rule="evenodd" d="M21.9274 38.7006C21.9287 38.373 22.1953 38.1084 22.5229 38.1097L34.763 38.157C35.0906 38.1582 35.3552 38.4248 35.3539 38.7524C35.3526 39.0801 35.086 39.3446 34.7584 39.3434L22.5183 39.2961C22.1907 39.2948 21.9261 39.0282 21.9274 38.7006Z" fill="black"/>
<defs>
<radialGradient id="paint0_radial_1326_16649" cx="0" cy="0" r="1" gradientUnits="userSpaceOnUse" gradientTransform="translate(28.5966 29.332) rotate(90) scale(28.5966)">
<stop stop-color="#9D8DFF"/>
<stop offset="1" stop-color="#AC9FFF"/>
</radialGradient>
</defs>
</svg>
