<svg width="58" height="75" viewBox="0 0 58 75" fill="none" xmlns="http://www.w3.org/2000/svg">
<path d="M57.8534 29.1582C57.8534 44.9517 45.0503 57.7548 29.2568 57.7548C13.4633 57.7548 0.660156 44.9517 0.660156 29.1582C0.660156 13.3647 13.4633 0.561523 29.2568 0.561523C45.0503 0.561523 57.8534 13.3647 57.8534 29.1582Z" fill="url(#paint0_radial_1326_16643)"/>
<path fill-rule="evenodd" clip-rule="evenodd" d="M22.8942 24.7854C19.3195 22.0427 15.4313 23.6325 13.9288 24.7854C13.7125 24.9514 13.4076 24.9039 13.2478 24.6794C13.0879 24.455 13.1336 24.1384 13.3499 23.9725C15.0287 22.6842 19.4119 20.8563 23.4731 23.9725C23.6894 24.1384 23.7351 24.4549 23.5752 24.6794C23.4154 24.9039 23.1105 24.9514 22.8942 24.7854Z" fill="black"/>
<path fill-rule="evenodd" clip-rule="evenodd" d="M43.9294 24.7854C40.3547 22.0427 36.4664 23.6325 34.964 24.7854C34.7477 24.9514 34.4428 24.9039 34.2829 24.6794C34.123 24.455 34.1688 24.1384 34.385 23.9725C36.0638 22.6842 40.447 20.8563 44.5083 23.9725C44.7245 24.1384 44.7703 24.4549 44.6104 24.6794C44.4505 24.9039 44.1456 24.9514 43.9294 24.7854Z" fill="black"/>
<path fill-rule="evenodd" clip-rule="evenodd" d="M30.2001 34.44C29.5129 34.4628 28.8101 34.7973 28.3768 35.109C28.1562 35.2678 27.8532 35.211 27.7001 34.9823C27.547 34.7536 27.6017 34.4395 27.8223 34.2808C28.3537 33.8985 29.2361 33.4633 30.169 33.4324C30.6434 33.4167 31.1427 33.5055 31.6106 33.7724C32.0808 34.0405 32.4896 34.4717 32.8047 35.0906C32.8322 35.1447 32.8501 35.2037 32.8573 35.2644C32.9276 35.858 32.7693 36.7021 32.0499 37.2821C31.8551 37.4392 31.6277 37.5699 31.3651 37.6695C32.1342 38.1393 32.8609 38.8694 32.8609 39.9316C32.8609 39.9791 32.8544 40.0264 32.8416 40.072C32.6913 40.6095 32.2802 41.3115 31.518 41.6983C30.7362 42.095 29.6831 42.1119 28.3522 41.4599C28.1094 41.341 28.0056 41.0405 28.1204 40.7888C28.2351 40.5371 28.525 40.4295 28.7678 40.5484C29.9097 41.1079 30.6433 41.0196 31.0904 40.7928C31.5245 40.5725 31.7796 40.1763 31.8861 39.8607C31.8525 39.3239 31.4374 38.8472 30.715 38.4472C30.1517 38.1353 29.4906 37.9236 28.9432 37.8022C28.788 37.7775 28.6277 37.7477 28.4621 37.7124C28.2046 37.6575 28.0358 37.4004 28.081 37.132C28.1261 36.8636 28.3689 36.6809 28.6291 36.7197C28.7776 36.7418 28.9425 36.7718 29.1186 36.8102C30.4105 37.0107 31.1006 36.7704 31.4529 36.4863C31.8064 36.2013 31.9134 35.796 31.8991 35.475C31.6717 35.0603 31.408 34.8075 31.1418 34.6557C30.8553 34.4923 30.5358 34.4289 30.2001 34.44Z" fill="black"/>
<path d="M45.6429 63.5449C46.4629 63.5449 47.1742 63.6307 47.7767 63.8022C48.3791 63.9738 48.8414 64.2227 49.1636 64.549C49.4899 64.8712 49.6531 65.2561 49.6531 65.7038C49.6531 66.1473 49.4899 66.528 49.1636 66.846C48.8414 67.1597 48.3791 67.4024 47.7767 67.5739C47.1742 67.7455 46.4629 67.8313 45.6429 67.8313C44.8271 67.8313 44.1158 67.7455 43.5092 67.5739C42.9067 67.4024 42.4402 67.1597 42.1097 66.846C41.7791 66.528 41.6139 66.1473 41.6139 65.7038C41.6139 65.2561 41.7791 64.8712 42.1097 64.549C42.4402 64.2227 42.9067 63.9738 43.5092 63.8022C44.1158 63.6307 44.8271 63.5449 45.6429 63.5449ZM45.6429 64.4863C45.0697 64.4863 44.5718 64.5344 44.1493 64.6306C43.7309 64.7227 43.4087 64.8607 43.1828 65.0448C42.9611 65.2289 42.8502 65.4486 42.8502 65.7038C42.8502 65.9548 42.959 66.1682 43.1765 66.3439C43.3983 66.5196 43.7183 66.6556 44.1367 66.7518C44.5593 66.8439 45.0614 66.8941 45.6429 66.9024C46.2119 66.8941 46.7056 66.8439 47.124 66.7518C47.5465 66.6556 47.8687 66.5196 48.0904 66.3439C48.3164 66.1682 48.4293 65.9548 48.4293 65.7038C48.4293 65.4486 48.3164 65.2289 48.0904 65.0448C47.8687 64.8607 47.5465 64.7227 47.124 64.6306C46.7056 64.5344 46.2119 64.4863 45.6429 64.4863ZM49.5213 74.4145H41.7457V70.6679H49.5213V74.4145ZM42.9255 73.448H48.354V71.6218H42.9255V73.448ZM50.7702 69.67H40.5156V68.6973H50.7702V69.67Z" fill="black"/>
<path d="M35.1117 68.3459H33.9382V66.664H35.1117V68.3459ZM34.7791 64.3608C34.7791 64.8963 34.5846 65.3754 34.1955 65.7979C33.8064 66.2205 33.2708 66.5636 32.5889 66.8272C31.9111 67.0866 31.1476 67.2518 30.2982 67.3229L29.9154 66.4381C30.6309 66.3837 31.2793 66.2582 31.8609 66.0615C32.4466 65.8649 32.9048 65.618 33.2353 65.321C33.57 65.0198 33.7373 64.6997 33.7373 64.3608V64.0282H34.7791V64.3608ZM35.3251 64.3608C35.3251 64.7039 35.4904 65.0239 35.8209 65.321C36.1514 65.618 36.6074 65.8649 37.189 66.0615C37.7747 66.2582 38.4274 66.3837 39.147 66.4381L38.7642 67.3229C37.9191 67.2518 37.1576 67.0866 36.4798 66.8272C35.8062 66.5636 35.2728 66.2226 34.8795 65.8042C34.4904 65.3817 34.2959 64.9005 34.2959 64.3608V64.0282H35.3251V64.3608ZM38.7454 64.5553H30.3422V63.6328H38.7454V64.5553ZM38.714 71.1511H30.3547V70.2349H38.714V71.1511ZM39.6867 68.8605H29.3945V67.8878H39.6867V68.8605ZM34.5218 71.6344C35.2498 71.6344 35.869 71.6909 36.3794 71.8038C36.8899 71.9126 37.2789 72.08 37.5467 72.3059C37.8145 72.5276 37.9484 72.7975 37.9484 73.1155C37.9484 73.4376 37.8145 73.7096 37.5467 73.9313C37.2789 74.153 36.8899 74.3204 36.3794 74.4334C35.869 74.5505 35.2498 74.6091 34.5218 74.6091C33.4256 74.6091 32.5826 74.4815 31.9927 74.2263C31.407 73.9752 31.1141 73.605 31.1141 73.1155C31.1141 72.7891 31.2459 72.5172 31.5095 72.2996C31.773 72.0779 32.1579 71.9126 32.6642 71.8038C33.1746 71.6909 33.7938 71.6344 34.5218 71.6344ZM34.5218 72.4502C34.0365 72.4502 33.6327 72.4753 33.3106 72.5255C32.9884 72.5716 32.7437 72.6427 32.5763 72.7389C32.409 72.8351 32.3253 72.9607 32.3253 73.1155C32.3253 73.2619 32.4111 73.3874 32.5826 73.492C32.7541 73.5966 33.0031 73.6719 33.3294 73.7179C33.6599 73.7681 34.0574 73.7932 34.5218 73.7932C34.9988 73.7932 35.4004 73.7681 35.7268 73.7179C36.0573 73.6719 36.3062 73.5966 36.4736 73.492C36.6409 73.3874 36.7246 73.2619 36.7246 73.1155C36.7246 72.9607 36.6409 72.8351 36.4736 72.7389C36.3062 72.6427 36.0635 72.5716 35.7456 72.5255C35.4276 72.4753 35.0197 72.4502 34.5218 72.4502ZM35.1243 70.8248H33.9319V69.2496H35.1243V70.8248Z" fill="black"/>
<path d="M28.5774 70.16H18.2852V69.2061H28.5774V70.16ZM24.1216 72.231H22.9418V69.6831H24.1216V72.231ZM27.4352 74.3334H19.5654V73.3481H27.4352V74.3334ZM20.7452 73.7372H19.5654V71.2394H20.7452V73.7372ZM20.8268 65.0265H26.0357V63.6709H27.2155V68.2083H19.647V63.6709H20.8268V65.0265ZM26.0357 67.2543V65.9239H20.8268V67.2543H26.0357Z" fill="black"/>
<path d="M16.541 74.5528H15.3361V63.3066H16.541V74.5528ZM13.2023 64.5179C13.2023 65.6642 13.0245 66.7248 12.6689 67.6997C12.3175 68.6703 11.7526 69.5656 10.9745 70.3857C10.1963 71.2015 9.18378 71.9086 7.937 72.5069L7.29688 71.5404C8.38049 71.03 9.26955 70.4359 9.96406 69.7581C10.6628 69.0803 11.1795 68.323 11.5142 67.4863C11.8489 66.6495 12.0162 65.7249 12.0162 64.7124V64.5179H13.2023ZM12.5308 65.4718H7.84286V64.5179H12.5308V65.4718Z" fill="black"/>
<defs>
<radialGradient id="paint0_radial_1326_16643" cx="0" cy="0" r="1" gradientUnits="userSpaceOnUse" gradientTransform="translate(29.2568 29.1582) rotate(90) scale(28.5966)">
<stop stop-color="#FFD361"/>
<stop offset="1" stop-color="#F9D77F"/>
</radialGradient>
</defs>
</svg>
