<svg width="58" height="76" viewBox="0 0 58 76" fill="none" xmlns="http://www.w3.org/2000/svg">
<path d="M57.8886 29.3115C57.8886 45.105 45.0854 57.9081 29.292 57.9081C13.4985 57.9081 0.695312 45.105 0.695312 29.3115C0.695312 13.518 13.4985 0.714844 29.292 0.714844C45.0854 0.714844 57.8886 13.518 57.8886 29.3115Z" fill="url(#paint0_radial_1326_16645)"/>
<path fill-rule="evenodd" clip-rule="evenodd" d="M11.2109 35.5566C12.7348 44.1552 20.102 50.6767 28.9606 50.6767C37.8192 50.6767 45.1864 44.1552 46.7102 35.5566H11.2109Z" fill="#FF8989"/>
<path fill-rule="evenodd" clip-rule="evenodd" d="M11.3019 35.6958C11.3762 35.6076 11.4862 35.5566 11.6022 35.5566H46.319C46.4349 35.5566 46.5449 35.6076 46.6192 35.6958C46.6936 35.7839 46.7246 35.9003 46.704 36.0133C45.1806 44.3521 37.8165 50.6767 28.9606 50.6767C20.1047 50.6767 12.7405 44.3521 11.2172 36.0133C11.1965 35.9003 11.2276 35.7839 11.3019 35.6958ZM46.319 35.9443C46.2953 36.074 46.2701 36.2032 46.2436 36.3319C44.5992 44.2971 37.4862 50.2891 28.9606 50.2891C20.435 50.2891 13.3219 44.2971 11.6776 36.3319C11.651 36.2032 11.6259 36.074 11.6022 35.9443H46.319Z" fill="black"/>
<path fill-rule="evenodd" clip-rule="evenodd" d="M14.5675 20.0358C14.7058 19.79 15.0115 19.7063 15.2501 19.8488L23.4545 24.7465C23.6108 24.8398 23.706 25.0126 23.7035 25.1986C23.701 25.3845 23.6012 25.5546 23.4425 25.6434L15.2381 30.2351C14.9957 30.3707 14.6925 30.2783 14.5607 30.0287C14.429 29.7791 14.5187 29.4668 14.7611 29.3312L22.1838 25.177L14.7491 20.7388C14.5104 20.5963 14.4291 20.2816 14.5675 20.0358Z" fill="black"/>
<path fill-rule="evenodd" clip-rule="evenodd" d="M43.3583 20.0358C43.22 19.79 42.9143 19.7063 42.6757 19.8488L34.4713 24.7465C34.315 24.8398 34.2198 25.0126 34.2223 25.1986C34.2248 25.3845 34.3246 25.5546 34.4833 25.6434L42.6877 30.2351C42.93 30.3707 43.2333 30.2783 43.3651 30.0287C43.4968 29.7791 43.4071 29.4668 43.1647 29.3312L35.742 25.177L43.1767 20.7388C43.4154 20.5963 43.4967 20.2816 43.3583 20.0358Z" fill="black"/>
<path d="M39.696 70.5913H29.4414V69.6248H39.696V70.5913ZM35.1586 69.8946H33.9662V68.0056H35.1586V69.8946ZM38.4345 75.1286H37.2421V72.5367H30.5773V71.5954H38.4345V75.1286ZM31.9705 65.3636H37.1794V64.1523H38.3592V68.4073H30.7907V64.1523H31.9705V65.3636ZM37.1794 67.4597V66.2547H31.9705V67.4597H37.1794Z" fill="black"/>
<path d="M27.9216 70.9807H26.7857V63.8828H27.9216V70.9807ZM27.1058 67.8428H25.0411V66.8638H27.1058V67.8428ZM25.4866 70.5916H24.3695V64.1025H25.4866V70.5916ZM23.9553 66.1107H18.2695V65.1693H23.9553V66.1107ZM21.125 66.6441C21.5978 66.6441 22.0182 66.7236 22.3864 66.8826C22.7588 67.0374 23.0475 67.2633 23.2525 67.5604C23.4575 67.8533 23.56 68.1942 23.56 68.5833C23.56 68.9599 23.4575 69.2946 23.2525 69.5875C23.0475 69.8761 22.7588 70.1021 22.3864 70.2652C22.0182 70.4242 21.5978 70.5037 21.125 70.5037C20.6648 70.5037 20.2506 70.4242 19.8824 70.2652C19.5142 70.1021 19.2276 69.8761 19.0226 69.5875C18.8176 69.2946 18.7151 68.9599 18.7151 68.5833C18.7151 68.1942 18.8176 67.8533 19.0226 67.5604C19.2276 67.2633 19.5121 67.0374 19.8761 66.8826C20.2401 66.7236 20.6564 66.6441 21.125 66.6441ZM21.125 67.5102C20.8614 67.5102 20.6271 67.5541 20.4221 67.642C20.2213 67.7257 20.0623 67.8491 19.9452 68.0122C19.8322 68.1754 19.7757 68.3658 19.7757 68.5833C19.7757 68.7883 19.8322 68.9703 19.9452 69.1293C20.0623 69.2883 20.2213 69.4117 20.4221 69.4996C20.6271 69.5875 20.8614 69.6314 21.125 69.6314C21.3928 69.6314 21.6291 69.5875 21.8342 69.4996C22.0392 69.4117 22.1981 69.2883 22.3111 69.1293C22.4241 68.9703 22.4806 68.7883 22.4806 68.5833C22.4806 68.3658 22.4241 68.1754 22.3111 68.0122C22.1981 67.8491 22.0392 67.7257 21.8342 67.642C21.6291 67.5541 21.3928 67.5102 21.125 67.5102ZM21.7149 65.7593H20.5288V63.9769H21.7149V65.7593ZM24.1624 71.1438C24.9616 71.1438 25.6456 71.2212 26.2146 71.376C26.7878 71.5308 27.225 71.7589 27.5262 72.0601C27.8317 72.3572 27.9844 72.7191 27.9844 73.1458C27.9844 73.5558 27.8317 73.9093 27.5262 74.2064C27.225 74.5035 26.7857 74.7294 26.2083 74.8842C25.6352 75.039 24.9532 75.1164 24.1624 75.1164C23.3717 75.1164 22.6897 75.039 22.1166 74.8842C21.5434 74.7294 21.1041 74.5035 20.7987 74.2064C20.4974 73.9093 20.3468 73.5558 20.3468 73.1458C20.3468 72.7191 20.4974 72.3572 20.7987 72.0601C21.1041 71.7589 21.5434 71.5308 22.1166 71.376C22.6897 71.2212 23.3717 71.1438 24.1624 71.1438ZM24.1624 72.0664C23.6018 72.058 23.1249 72.0957 22.7316 72.1793C22.3425 72.2588 22.0454 72.3823 21.8404 72.5496C21.6396 72.7128 21.5392 72.9115 21.5392 73.1458C21.5392 73.3717 21.6396 73.5642 21.8404 73.7232C22.0454 73.878 22.3446 73.9951 22.7379 74.0746C23.1353 74.1583 23.6102 74.2001 24.1624 74.2001C24.7231 74.2001 25.1979 74.1583 25.587 74.0746C25.9803 73.9951 26.2795 73.878 26.4845 73.7232C26.6895 73.5642 26.792 73.3717 26.792 73.1458C26.792 72.9031 26.6895 72.7023 26.4845 72.5433C26.2795 72.3802 25.9803 72.2588 25.587 72.1793C25.1979 72.0957 24.7231 72.058 24.1624 72.0664Z" fill="black"/>
<defs>
<radialGradient id="paint0_radial_1326_16645" cx="0" cy="0" r="1" gradientUnits="userSpaceOnUse" gradientTransform="translate(29.292 29.3115) rotate(90) scale(28.5966)">
<stop stop-color="#FFF27E"/>
<stop offset="1" stop-color="#FFF59E"/>
</radialGradient>
</defs>
</svg>
