<svg width="58" height="74" viewBox="0 0 58 74" fill="none" xmlns="http://www.w3.org/2000/svg">
<path d="M57.7987 28.9253C57.7987 44.9004 44.9956 57.8507 29.2021 57.8507C13.4086 57.8507 0.605469 44.9004 0.605469 28.9253C0.605469 12.9503 13.4086 0 29.2021 0C44.9956 0 57.7987 12.9503 57.7987 28.9253Z" fill="url(#paint0_radial_1326_16641)"/>
<path d="M21.6397 25.3098C21.6397 26.9436 20.7567 28.2681 19.6675 28.2681C18.5783 28.2681 17.6953 26.9436 17.6953 25.3098C17.6953 23.676 18.5783 22.3516 19.6675 22.3516C20.7567 22.3516 21.6397 23.676 21.6397 25.3098Z" fill="black"/>
<path d="M41.3623 25.3098C41.3623 26.9436 40.4794 28.2681 39.3902 28.2681C38.3009 28.2681 37.418 26.9436 37.418 25.3098C37.418 23.676 38.3009 22.3516 39.3902 22.3516C40.4794 22.3516 41.3623 23.676 41.3623 25.3098Z" fill="black"/>
<path fill-rule="evenodd" clip-rule="evenodd" d="M23.6133 39.7721C23.6133 39.5905 23.8709 39.4434 24.1887 39.4434H34.871C35.1888 39.4434 35.4464 39.5905 35.4464 39.7721C35.4464 39.9536 35.1888 40.1008 34.871 40.1008H24.1887C23.8709 40.1008 23.6133 39.9536 23.6133 39.7721Z" fill="black"/>
<path d="M43.7443 66.3158H41.3156V65.3368H43.7443V66.3158ZM44.5978 69.165H43.4054V62.4688H44.5978V69.165ZM40.8261 69.485C41.6168 69.485 42.2967 69.5687 42.8657 69.7361C43.4389 69.9034 43.8761 70.1461 44.1773 70.464C44.4827 70.7778 44.6354 71.1565 44.6354 71.5999C44.6354 72.0434 44.4827 72.4221 44.1773 72.7359C43.8761 73.0538 43.4389 73.2965 42.8657 73.4638C42.2967 73.6312 41.6168 73.717 40.8261 73.7211C40.0437 73.717 39.368 73.6312 38.799 73.4638C38.23 73.2965 37.7928 73.0538 37.4874 72.7359C37.1819 72.4221 37.0292 72.0434 37.0292 71.5999C37.0292 71.1565 37.1819 70.7778 37.4874 70.464C37.7928 70.1461 38.23 69.9034 38.799 69.7361C39.368 69.5687 40.0437 69.485 40.8261 69.485ZM40.8261 70.4013C40.2863 70.4013 39.8178 70.4494 39.4203 70.5456C39.027 70.6377 38.7258 70.7736 38.5166 70.9535C38.3116 71.1335 38.2091 71.3489 38.2091 71.5999C38.2091 71.8426 38.3116 72.0539 38.5166 72.2338C38.7258 72.4137 39.027 72.5518 39.4203 72.648C39.8178 72.74 40.2863 72.7861 40.8261 72.7861C41.3783 72.7861 41.849 72.74 42.2381 72.648C42.6314 72.5518 42.9305 72.4137 43.1355 72.2338C43.3447 72.0539 43.4493 71.8426 43.4493 71.5999C43.4493 71.3489 43.3447 71.1335 43.1355 70.9535C42.9305 70.7736 42.6314 70.6377 42.2381 70.5456C41.849 70.4494 41.3783 70.4013 40.8261 70.4013ZM39.0186 64.477C39.0186 65.1673 38.8889 65.82 38.6295 66.435C38.3743 67.05 38.0083 67.5898 37.5313 68.0542C37.0543 68.5144 36.4958 68.8637 35.8557 69.1022L35.2344 68.1483C35.8034 67.9475 36.2992 67.6567 36.7217 67.276C37.1485 66.8952 37.4748 66.4622 37.7007 65.9769C37.9267 65.4874 38.0396 64.9874 38.0396 64.477V63.6047H39.0186V64.477ZM39.2446 64.4644C39.2446 64.9372 39.3534 65.3974 39.5709 65.8451C39.7885 66.2886 40.1023 66.686 40.5123 67.0375C40.9223 67.3847 41.4034 67.6546 41.9557 67.8471L41.3469 68.7947C40.7152 68.573 40.1692 68.2445 39.709 67.8094C39.2488 67.3743 38.8952 66.868 38.6484 66.2907C38.4015 65.7091 38.2781 65.1004 38.2781 64.4644V63.6047H39.2446V64.4644ZM41.667 64.226H35.5921V63.2407H41.667V64.226Z" fill="black"/>
<path d="M28.0733 71.7372H26.8746V68.5617H28.0733V71.7372ZM31.5751 71.7435H30.389V68.568H31.5751V71.7435ZM34.4055 72.3836H24.1133V71.4109H34.4055V72.3836ZM33.4641 64.4386H24.9856V63.4658H33.4641V64.4386ZM33.4328 68.9132H25.0233V67.9404H33.4328V68.9132ZM27.8787 68.1224H26.6926V64.2566H27.8787V68.1224ZM31.7509 68.1224H30.5773V64.2566H31.7509V68.1224Z" fill="black"/>
<path d="M23.2805 69.8993H12.9883V68.9266H23.2805V69.8993ZM18.6929 73.7149H17.5194V69.529H18.6929V73.7149ZM21.9814 67.502H14.2748V63.0713H21.9814V67.502ZM15.4484 66.5669H20.7953V64.0315H15.4484V66.5669Z" fill="black"/>
<defs>
<radialGradient id="paint0_radial_1326_16641" cx="0" cy="0" r="1" gradientUnits="userSpaceOnUse" gradientTransform="translate(29.2021 28.9253) rotate(90) scale(28.9253 28.5966)">
<stop stop-color="#ABABAB"/>
<stop offset="1" stop-color="#B5B5B5"/>
</radialGradient>
</defs>
</svg>
