<svg width="59" height="76" viewBox="0 0 59 76" fill="none" xmlns="http://www.w3.org/2000/svg">
<path d="M58.0292 29.3115C58.0292 45.105 45.2261 57.9081 29.4326 57.9081C13.6391 57.9081 0.835938 45.105 0.835938 29.3115C0.835938 13.518 13.6391 0.714844 29.4326 0.714844C45.2261 0.714844 58.0292 13.518 58.0292 29.3115Z" fill="url(#paint0_radial_1326_16648)"/>
<path fill-rule="evenodd" clip-rule="evenodd" d="M12.8164 24.2491C12.8164 23.9195 13.0945 23.6523 13.4377 23.6523L24.1299 23.6523C24.473 23.6523 24.7512 23.9195 24.7512 24.2491C24.7512 24.5787 24.473 24.8458 24.1299 24.8458L13.4377 24.8458C13.0945 24.8458 12.8164 24.5787 12.8164 24.2491Z" fill="black"/>
<path fill-rule="evenodd" clip-rule="evenodd" d="M34.3008 24.2491C34.3008 23.9195 34.5511 23.6523 34.8599 23.6523L44.483 23.6523C44.7918 23.6523 45.0421 23.9195 45.0421 24.2491C45.0421 24.5787 44.7918 24.8458 44.483 24.8458L34.8599 24.8458C34.5511 24.8458 34.3008 24.5787 34.3008 24.2491Z" fill="black"/>
<path fill-rule="evenodd" clip-rule="evenodd" d="M23.8438 40.1584C23.8438 39.7953 24.1042 39.501 24.4255 39.501L34.4377 39.501C34.759 39.501 35.0194 39.7953 35.0194 40.1584C35.0194 40.5214 34.759 40.8158 34.4377 40.8158L24.4255 40.8158C24.1042 40.8158 23.8438 40.5214 23.8438 40.1584Z" fill="black"/>
<path d="M44.5732 65.5835C44.5732 66.3115 44.4477 66.9914 44.1967 67.6232C43.9456 68.2549 43.5879 68.8051 43.1235 69.2737C42.6591 69.7423 42.1047 70.0979 41.4604 70.3405L40.8203 69.3929C41.3935 69.1837 41.8872 68.8867 42.3014 68.5018C42.7198 68.1168 43.0398 67.6734 43.2616 67.1713C43.4833 66.6692 43.5942 66.14 43.5942 65.5835V64.4727H44.5732V65.5835ZM44.774 65.6902C44.774 66.1755 44.8849 66.6462 45.1066 67.1023C45.3284 67.5541 45.6443 67.9537 46.0543 68.3009C46.4643 68.644 46.9454 68.9076 47.4977 69.0917L46.8513 70.0205C46.2321 69.8029 45.6924 69.4787 45.2322 69.0477C44.7719 68.6168 44.4184 68.1148 44.1716 67.5416C43.9289 66.9642 43.8076 66.3471 43.8076 65.6902V64.4727H44.774V65.6902ZM49.7381 70.6669H48.552V63.8828H49.7381V70.6669ZM51.3761 67.711H49.4055V66.7132H51.3761V67.711ZM46.1045 70.9367C46.8743 70.9367 47.5395 71.0204 48.1002 71.1878C48.6608 71.3509 49.0896 71.5873 49.3867 71.8969C49.6879 72.2065 49.8385 72.581 49.8385 73.0203C49.8385 73.4596 49.6879 73.8361 49.3867 74.1499C49.0896 74.4637 48.6629 74.7022 48.1064 74.8654C47.55 75.0327 46.8827 75.1164 46.1045 75.1164C45.3305 75.1164 44.659 75.0327 44.09 74.8654C43.5252 74.7022 43.09 74.4637 42.7846 74.1499C42.4834 73.8361 42.3328 73.4596 42.3328 73.0203C42.3328 72.581 42.4834 72.2065 42.7846 71.8969C43.09 71.5873 43.5252 71.3509 44.09 71.1878C44.659 71.0204 45.3305 70.9367 46.1045 70.9367ZM46.1045 71.8844C45.5731 71.8844 45.1129 71.9283 44.7238 72.0162C44.3347 72.104 44.0377 72.2358 43.8327 72.4115C43.6318 72.5831 43.5314 72.786 43.5314 73.0203C43.5314 73.2629 43.6318 73.4721 43.8327 73.6479C44.0377 73.8194 44.3326 73.9491 44.7175 74.037C45.1025 74.1248 45.5648 74.1708 46.1045 74.175C46.6526 74.1708 47.117 74.1248 47.4977 74.037C47.8826 73.9491 48.1755 73.8194 48.3763 73.6479C48.5771 73.4721 48.6775 73.2629 48.6775 73.0203C48.6775 72.7776 48.575 72.5726 48.37 72.4053C48.1692 72.2337 47.8763 72.104 47.4914 72.0162C47.1065 71.9283 46.6442 71.8844 46.1045 71.8844Z" fill="black"/>
<path d="M40.0735 71.3134H29.7812V70.3406H40.0735V71.3134ZM35.4859 75.129H34.3123V70.9431H35.4859V75.129ZM38.7744 68.916H31.0678V64.4854H38.7744V68.916ZM32.2413 67.9809H37.5883V65.4455H32.2413V67.9809Z" fill="black"/>
<path d="M20.5565 69.3239H19.3516V64.4225H20.5565V69.3239ZM20.2113 69.0728C21.1611 69.0728 22.002 69.0477 22.7342 68.9975C23.4705 68.9473 24.209 68.8553 24.9495 68.7214L25.0939 69.6816C24.3157 69.8238 23.55 69.9243 22.7969 69.9828C22.048 70.0372 21.1862 70.0644 20.2113 70.0644H19.3516V69.0728H20.2113ZM28.0623 70.4974H26.8699V63.8828H28.0623V70.4974ZM27.1837 65.9977H23.8011V65.0878H27.1837V65.9977ZM27.1837 67.9746H23.8011V67.0646H27.1837V67.9746ZM28.0623 74.9909H20.7134V70.9744H28.0623V74.9909ZM21.8807 74.0244H26.8824V71.9283H21.8807V74.0244Z" fill="black"/>
<path d="M17.8586 71.3134H7.56641V70.3406H17.8586V71.3134ZM13.2711 75.129H12.0975V70.9431H13.2711V75.129ZM16.5595 68.916H8.85293V64.4854H16.5595V68.916ZM10.0265 67.9809H15.3734V65.4455H10.0265V67.9809Z" fill="black"/>
<defs>
<radialGradient id="paint0_radial_1326_16648" cx="0" cy="0" r="1" gradientUnits="userSpaceOnUse" gradientTransform="translate(29.4326 29.3115) rotate(90) scale(28.5966)">
<stop stop-color="#F391FC"/>
<stop offset="1" stop-color="#F8AAFF"/>
</radialGradient>
</defs>
</svg>
