<svg width="61" height="76" viewBox="0 0 61 76" fill="none" xmlns="http://www.w3.org/2000/svg">
<path d="M59.6855 28.7548C59.6855 44.5483 46.8823 57.3515 31.0888 57.3515C15.2953 57.3515 2.49219 44.5483 2.49219 28.7548C2.49219 12.9614 15.2953 0.158203 31.0888 0.158203C46.8823 0.158203 59.6855 12.9614 59.6855 28.7548Z" fill="url(#paint0_radial_1326_16651)"/>
<path d="M11.2601 14.8817C10.7402 15.4679 11.0655 18.421 13.0112 14.8817C13.0112 14.8817 11.78 14.2954 11.2601 14.8817Z" fill="#0E52FF"/>
<path d="M6.69726 21.009C6.08842 22.0706 6.50699 25.2819 8.40968 21.009C8.40968 21.009 7.3061 19.9473 6.69726 21.009Z" fill="#0E52FF"/>
<path d="M11.2601 26.747C10.7403 27.4081 11.0655 30.168 13.0112 26.747C13.0112 26.747 11.7799 26.0858 11.2601 26.747Z" fill="#0E52FF"/>
<path fill-rule="evenodd" clip-rule="evenodd" d="M13.4576 14.6633C13.6495 14.7586 13.7242 14.9843 13.6244 15.1675C13.1577 16.0243 12.7822 16.5786 12.4741 16.8895C12.3241 17.0408 12.1515 17.1748 11.9543 17.2273C11.8478 17.2556 11.7297 17.2612 11.6106 17.2274C11.4923 17.1938 11.3999 17.129 11.3314 17.057C11.2043 16.9234 11.1422 16.748 11.1069 16.6011C11.0694 16.4445 11.0506 16.2676 11.0431 16.0883C11.028 15.7288 11.0569 15.3171 11.103 14.9505C11.1288 14.7455 11.3238 14.5992 11.5385 14.6238C11.7532 14.6484 11.9064 14.8346 11.8806 15.0396C11.8375 15.383 11.8128 15.7522 11.8256 16.0584C11.8316 16.2013 11.8454 16.3212 11.8657 16.4139C11.878 16.4025 11.8911 16.3898 11.9052 16.3756C12.1338 16.145 12.468 15.6698 12.9295 14.8225C13.0293 14.6394 13.2658 14.5681 13.4576 14.6633Z" fill="black"/>
<path fill-rule="evenodd" clip-rule="evenodd" d="M8.85607 20.5899C9.04795 20.709 9.12261 20.9911 9.02282 21.2201C8.5561 22.2911 8.18068 22.984 7.87255 23.3726C7.72259 23.5617 7.54993 23.7292 7.35278 23.7948C7.24628 23.8303 7.1281 23.8372 7.00906 23.795C6.89071 23.753 6.79834 23.672 6.72983 23.582C6.60273 23.415 6.5406 23.1957 6.50538 23.0121C6.46784 22.8164 6.44902 22.5952 6.44151 22.3711C6.42646 21.9218 6.45537 21.4071 6.50147 20.9488C6.52724 20.6926 6.72221 20.5098 6.93694 20.5405C7.15167 20.5713 7.30485 20.8039 7.27908 21.0602C7.2359 21.4894 7.21125 21.951 7.22408 22.3338C7.23006 22.5124 7.24388 22.6623 7.26417 22.7782C7.27641 22.7639 7.28958 22.748 7.30368 22.7302C7.53222 22.442 7.86641 21.848 8.32797 20.7889C8.42776 20.5599 8.6642 20.4708 8.85607 20.5899Z" fill="black"/>
<path fill-rule="evenodd" clip-rule="evenodd" d="M13.4576 26.4954C13.6495 26.5906 13.7242 26.8163 13.6244 26.9995C13.1577 27.8563 12.7822 28.4107 12.4741 28.7215C12.3241 28.8728 12.1515 29.0068 11.9543 29.0593C11.8478 29.0876 11.7297 29.0932 11.6106 29.0594C11.4923 29.0258 11.3999 28.961 11.3314 28.889C11.2043 28.7555 11.1422 28.58 11.1069 28.4331C11.0694 28.2766 11.0506 28.0996 11.0431 27.9203C11.028 27.5609 11.0569 27.1491 11.103 26.7825C11.1288 26.5775 11.3238 26.4313 11.5385 26.4559C11.7532 26.4805 11.9064 26.6666 11.8806 26.8716C11.8375 27.215 11.8128 27.5843 11.8256 27.8905C11.8316 28.0334 11.8454 28.1533 11.8657 28.246C11.878 28.2346 11.8911 28.2218 11.9052 28.2076C12.1338 27.9771 12.468 27.5019 12.9295 26.6546C13.0293 26.4714 13.2658 26.4001 13.4576 26.4954Z" fill="black"/>
<path fill-rule="evenodd" clip-rule="evenodd" d="M14.9766 22.509C14.9766 22.1459 15.2514 21.8516 15.5903 21.8516H25.5385C25.8775 21.8516 26.1523 22.1459 26.1523 22.509C26.1523 22.872 25.8775 23.1664 25.5385 23.1664H15.5903C15.2514 23.1664 14.9766 22.872 14.9766 22.509Z" fill="black"/>
<path fill-rule="evenodd" clip-rule="evenodd" d="M36.0195 22.509C36.0195 22.1459 36.2782 21.8516 36.5972 21.8516H45.9602C46.2792 21.8516 46.5378 22.1459 46.5378 22.509C46.5378 22.872 46.2792 23.1664 45.9602 23.1664H36.5972C36.2782 23.1664 36.0195 22.872 36.0195 22.509Z" fill="black"/>
<path fill-rule="evenodd" clip-rule="evenodd" d="M31.6678 39.7123C31.6657 39.3847 31.9296 39.1175 32.2573 39.1154L41.7161 39.0555C42.0437 39.0534 42.3109 39.3173 42.313 39.6449C42.3151 39.9725 42.0512 40.2398 41.7236 40.2419L32.2648 40.3018C31.9372 40.3038 31.6699 40.0399 31.6678 39.7123Z" fill="black"/>
<path d="M60.3339 68.456H59.3675V62.6572H60.3339V68.456ZM60.3465 71.6566H54.0833V73.2632H53.1168V70.9161H59.3675V69.7739H53.0917V68.9957H60.3465V71.6566ZM60.7481 73.69H53.1168V72.8992H60.7481V73.69ZM54.9619 64.2387C54.9619 64.883 54.828 65.4876 54.5603 66.0524C54.2925 66.6172 53.9159 67.1088 53.4306 67.5272C52.9453 67.9456 52.3889 68.2594 51.7613 68.4686L51.2969 67.6904C51.8575 67.5063 52.3533 67.2385 52.7842 66.8871C53.2152 66.5356 53.552 66.1319 53.7946 65.6759C54.0373 65.2198 54.1586 64.7408 54.1586 64.2387V63.6362H54.9619V64.2387ZM55.1502 64.2387C55.1502 64.7157 55.2715 65.1696 55.5142 65.6005C55.7568 66.0315 56.0957 66.408 56.5308 66.7302C56.966 67.0523 57.4638 67.2971 58.0245 67.4644L57.535 68.2301C56.9158 68.0293 56.3656 67.7343 55.8844 67.3452C55.4033 66.9561 55.0288 66.4938 54.7611 65.9583C54.4933 65.4227 54.3594 64.8496 54.3594 64.2387V63.6362H55.1502V64.2387ZM57.7232 64.1132H51.5479V63.2974H57.7232V64.1132Z" fill="black"/>
<path d="M41.2316 66.5984H42.5871V63.7241H43.4281V71.1044H40.3906V63.7241H41.2316V66.5984ZM42.5871 70.2885V67.3766H41.2316V70.2885H42.5871ZM45.1602 66.5984H46.4906V63.7241H47.3065V71.1044H44.3192V63.7241H45.1602V66.5984ZM46.4906 70.2885V67.3766H45.1602V70.2885H46.4906ZM49.4779 73.8155H48.5365V62.6572H49.4779V73.8155Z" fill="black"/>
<path d="M37.8372 73.665H30.6075V69.6862H37.8372V73.665ZM31.574 72.8617H36.8707V70.4644H31.574V72.8617ZM37.8372 69.0963H36.8456V62.6699H37.8372V69.0963ZM39.3183 66.2471H37.3602V65.4187H39.3183V66.2471ZM29.8294 67.5524C30.3565 67.5441 30.7979 67.5253 31.1535 67.496C31.5092 67.4667 31.9003 67.406 32.3271 67.314L32.4275 68.1424C31.9589 68.2428 31.5238 68.3097 31.1222 68.3432C30.7205 68.3767 30.2896 68.3934 29.8294 68.3934H29.3398V67.5524H29.8294ZM32.1263 64.3016H30.2812V68.0168H29.3398V63.4732H32.1263V64.3016ZM33.3563 67.5524C34.0592 67.5441 34.5968 67.5273 34.9692 67.5022C35.3415 67.4771 35.7369 67.4144 36.1553 67.314L36.2683 68.1424C35.7997 68.2428 35.352 68.3097 34.9253 68.3432C34.4985 68.3767 33.9755 68.3934 33.3563 68.3934H32.8041V67.5524H33.3563ZM35.7662 64.3016H33.7454V67.9917H32.8041V63.4732H35.7662V64.3016Z" fill="black"/>
<path d="M23.253 75.372H22.3242L23.0145 71.958H24.232L23.253 75.372Z" fill="black"/>
<path d="M14.4975 63.7232C14.4975 64.1583 14.4034 64.5997 14.2151 65.0474C14.0268 65.4951 13.7507 65.9009 13.3867 66.2649C13.0227 66.6289 12.5855 66.9113 12.0751 67.1121L11.573 66.3841C12.0165 66.2168 12.4014 65.9846 12.7277 65.6875C13.0541 65.3905 13.3009 65.0683 13.4683 64.7211C13.6356 64.3738 13.7193 64.0412 13.7193 63.7232V62.9199H14.4975V63.7232ZM14.6983 63.7232C14.6983 64.0328 14.7799 64.3654 14.9431 64.7211C15.1062 65.0767 15.3447 65.4093 15.6585 65.7189C15.9723 66.0285 16.3426 66.2753 16.7693 66.4594L16.3802 67.2376C15.8614 67.0368 15.4179 66.7398 15.0498 66.3465C14.6816 65.9532 14.4055 65.5264 14.2214 65.0662C14.0373 64.606 13.9452 64.1583 13.9452 63.7232V62.9199H14.6983V63.7232ZM18.8027 63.7232C18.8027 64.1751 18.7127 64.6332 18.5328 65.0976C18.3529 65.562 18.0809 65.9846 17.717 66.3653C17.353 66.746 16.9074 67.0368 16.3802 67.2376L15.9786 66.4594C16.4137 66.2837 16.7861 66.0431 17.0957 65.7377C17.4053 65.4323 17.6416 65.1039 17.8048 64.7524C17.968 64.401 18.0496 64.0579 18.0496 63.7232V62.9199H18.8027V63.7232ZM19.0286 63.7232C19.0286 64.083 19.1123 64.4366 19.2796 64.7838C19.447 65.1311 19.6917 65.4449 20.0139 65.7252C20.336 66.0055 20.7188 66.2251 21.1623 66.3841L20.6854 67.1121C20.1666 66.9197 19.7252 66.6498 19.3612 66.3025C18.9972 65.9553 18.7232 65.5578 18.5391 65.1102C18.355 64.6625 18.2629 64.2002 18.2629 63.7232V62.9199H19.0286V63.7232ZM21.5012 68.8693H11.2969V68.0535H21.5012V68.8693ZM20.1833 73.8146H19.1918V70.8901H12.4014V70.0868H20.1833V73.8146Z" fill="black"/>
<path d="M5.72007 70.9914H0.636719V63.7743H5.72007V70.9914ZM1.61573 70.2007H4.76615V64.5525H1.61573V70.2007ZM9.4353 73.8406H8.45629V62.6572H9.4353V73.8406ZM8.84538 67.5649H5.56945V66.749H8.84538V67.5649Z" fill="black"/>
<defs>
<radialGradient id="paint0_radial_1326_16651" cx="0" cy="0" r="1" gradientUnits="userSpaceOnUse" gradientTransform="translate(31.0888 28.7548) rotate(90) scale(28.5966)">
<stop stop-color="#92ECF2"/>
<stop offset="1" stop-color="#B1EFF3"/>
</radialGradient>
</defs>
</svg>
