<svg width="58" height="76" viewBox="0 0 58 76" fill="none" xmlns="http://www.w3.org/2000/svg">
<path d="M57.8652 29.1298C57.8652 44.9233 45.062 57.7265 29.2685 57.7265C13.475 57.7265 0.671875 44.9233 0.671875 29.1298C0.671875 13.3364 13.475 0.533203 29.2685 0.533203C45.062 0.533203 57.8652 13.3364 57.8652 29.1298Z" fill="#D8AD85"/>
<path d="M57.9355 29.0507C57.9355 44.8442 45.1323 57.6474 29.3388 57.6474C13.5453 57.6474 0.742188 44.8442 0.742188 29.0507C0.742188 13.2573 13.5453 0.454102 29.3388 0.454102C45.1323 0.454102 57.9355 13.2573 57.9355 29.0507Z" fill="url(#paint0_linear_1328_16654)" fill-opacity="0.65"/>
<path d="M35.702 33.4692L37.4305 30.2739L39.0012 31.4057L37.6463 34.0314L35.702 33.4692Z" fill="white"/>
<path d="M32.9531 37.8673L35.7315 32.667L38.2123 33.8444L35.4339 39.2409L32.9531 37.8673Z" fill="#FF0202"/>
<path fill-rule="evenodd" clip-rule="evenodd" d="M22.639 19.9091C22.765 20.1513 22.6709 20.4498 22.4287 20.5759L13.6399 25.1494C13.3977 25.2755 13.0992 25.1813 12.9732 24.9391C12.8472 24.6969 12.9413 24.3984 13.1835 24.2724L21.9723 19.6988C22.2145 19.5728 22.513 19.667 22.639 19.9091Z" fill="black"/>
<path fill-rule="evenodd" clip-rule="evenodd" d="M35.4001 19.9091C35.274 20.1513 35.3682 20.4498 35.6104 20.5759L44.3992 25.1494C44.6413 25.2755 44.9398 25.1813 45.0659 24.9391C45.1919 24.6969 45.0977 24.3984 44.8556 24.2724L36.0668 19.6988C35.8246 19.5728 35.5261 19.667 35.4001 19.9091Z" fill="black"/>
<path fill-rule="evenodd" clip-rule="evenodd" d="M29.3408 37.5938L20.5487 41.8176C20.3007 41.9368 19.9949 41.8477 19.8659 41.6188C19.7368 41.3898 19.8332 41.1076 20.0813 40.9884L29.0823 36.6642C29.165 36.6245 29.254 36.6079 29.3408 36.6119C29.4276 36.6079 29.5166 36.6245 29.5993 36.6642L38.6003 40.9884C38.8484 41.1076 38.9448 41.3898 38.8157 41.6188C38.6867 41.8477 38.381 41.9368 38.1329 41.8176L29.3408 37.5938Z" fill="black"/>
<path fill-rule="evenodd" clip-rule="evenodd" d="M36.9965 31.3744L33.4493 37.8343L35.148 38.7423L38.4168 32.1363C38.4192 32.1315 38.4217 32.1267 38.4242 32.122C38.5457 31.8956 38.5538 31.7439 38.5387 31.6488C38.523 31.5495 38.4731 31.4583 38.393 31.3715C38.3111 31.2828 38.2093 31.212 38.1209 31.162C38.078 31.1378 38.0418 31.1203 38.0179 31.1096C38.006 31.1042 37.9974 31.1006 37.9929 31.0988L37.9895 31.0974C37.9871 31.0965 37.9846 31.0956 37.9821 31.0946C37.7167 30.9895 37.5136 30.9973 37.3684 31.0471C37.2227 31.0971 37.0923 31.204 36.9965 31.3744ZM38.3416 30.1879C37.8941 30.0114 37.4482 29.9887 37.0487 30.1258C36.6492 30.263 36.339 30.5454 36.1395 30.9018L36.1376 30.9053L32.3529 37.7977C32.2904 37.9116 32.2761 38.0456 32.3133 38.1701C32.3504 38.2945 32.436 38.399 32.551 38.4605L35.1313 39.8399C35.2485 39.9026 35.3862 39.9151 35.5128 39.8748C35.6394 39.8344 35.7441 39.7446 35.8029 39.6259L39.2926 32.5735C39.4934 32.1962 39.5601 31.8337 39.5066 31.4968C39.4534 31.1618 39.2893 30.9014 39.1148 30.7123C38.9421 30.5252 38.7486 30.3959 38.6054 30.3149C38.5324 30.2736 38.4687 30.2427 38.4217 30.2215C38.3981 30.2109 38.3784 30.2026 38.3636 30.1966C38.3562 30.1936 38.3499 30.1911 38.345 30.1892L38.3416 30.1879Z" fill="black"/>
<path d="M39.8561 70.296H29.6016V69.3358H39.8561V70.296ZM38.8959 65.1876H30.5429V64.2148H38.8959V65.1876ZM38.8457 68.3255H30.5931V67.3653H38.8457V68.3255ZM33.367 67.9866H32.1809V64.6165H33.367V67.9866ZM37.258 67.9866H36.0656V64.6165H37.258V67.9866ZM38.6072 74.9213H30.8316V71.3566H38.6072V74.9213ZM32.0114 73.9548H37.44V72.2854H32.0114V73.9548Z" fill="black"/>
<path d="M21.5134 64.6607C22.074 64.6607 22.5698 64.8239 23.0007 65.1502C23.4358 65.4765 23.7768 65.9368 24.0237 66.5309C24.2747 67.125 24.4002 67.8174 24.4002 68.6081C24.4002 69.4031 24.2747 70.0976 24.0237 70.6917C23.7768 71.2858 23.4358 71.746 23.0007 72.0723C22.5656 72.3945 22.0698 72.5556 21.5134 72.5556C20.9569 72.5556 20.4591 72.3945 20.0198 72.0723C19.5846 71.746 19.2437 71.2858 18.9968 70.6917C18.7541 70.0976 18.6328 69.4031 18.6328 68.6081C18.6328 67.8174 18.7541 67.125 18.9968 66.5309C19.2437 65.9368 19.5846 65.4765 20.0198 65.1502C20.4591 64.8239 20.9569 64.6607 21.5134 64.6607ZM21.5134 65.7276C21.1703 65.7276 20.867 65.8447 20.6034 66.079C20.3398 66.3133 20.1348 66.648 19.9884 67.0831C19.8419 67.5141 19.7687 68.0224 19.7687 68.6081C19.7687 69.1897 19.8419 69.698 19.9884 70.1331C20.1348 70.5683 20.3419 70.903 20.6097 71.1373C20.8774 71.3674 21.1787 71.4824 21.5134 71.4824C21.8564 71.4824 22.1598 71.3674 22.4234 71.1373C22.6869 70.903 22.8899 70.5683 23.0321 70.1331C23.1785 69.698 23.2518 69.1897 23.2518 68.6081C23.2518 68.0224 23.1785 67.5141 23.0321 67.0831C22.8899 66.648 22.6869 66.3133 22.4234 66.079C22.1598 65.8447 21.8564 65.7276 21.5134 65.7276ZM27.2557 75.0596H26.0696V63.8135H27.2557V75.0596ZM29.0694 69.2357H26.9858V68.219H29.0694V69.2357Z" fill="black"/>
<path fill-rule="evenodd" clip-rule="evenodd" d="M35.7501 32.5831C35.7716 32.5329 35.8297 32.5096 35.8799 32.5311L37.0823 33.0464C37.1325 33.068 37.1558 33.1261 37.1343 33.1763C37.1127 33.2265 37.0546 33.2497 37.0044 33.2282L35.802 32.7129C35.7519 32.6914 35.7286 32.6332 35.7501 32.5831Z" fill="black"/>
<path fill-rule="evenodd" clip-rule="evenodd" d="M35.1525 33.7686C35.174 33.7184 35.2321 33.6952 35.2823 33.7167L36.4847 34.232C36.5349 34.2535 36.5581 34.3116 36.5366 34.3618C36.5151 34.412 36.457 34.4352 36.4068 34.4137L35.2044 33.8984C35.1542 33.8769 35.131 33.8188 35.1525 33.7686Z" fill="black"/>
<path fill-rule="evenodd" clip-rule="evenodd" d="M34.5587 34.9561C34.5802 34.9059 34.6383 34.8827 34.6885 34.9042L35.8909 35.4195C35.9411 35.441 35.9644 35.4991 35.9428 35.5493C35.9213 35.5995 35.8632 35.6227 35.813 35.6012L34.6106 35.0859C34.5605 35.0644 34.5372 35.0063 34.5587 34.9561Z" fill="black"/>
<defs>
<linearGradient id="paint0_linear_1328_16654" x1="35.6325" y1="-19.0085" x2="18.8904" y2="37.6193" gradientUnits="userSpaceOnUse">
<stop offset="0.399" stop-color="#FF0202"/>
<stop offset="1" stop-color="white" stop-opacity="0"/>
</linearGradient>
</defs>
</svg>
