<svg width="370" height="382" viewBox="0 0 370 382" fill="none" xmlns="http://www.w3.org/2000/svg">
<circle cx="185.771" cy="144.833" r="144.833" fill="url(#paint0_radial_1486_9759)"/>
<path d="M148.207 101.569C138.501 100.872 118.776 104.18 117.529 122.984C116.283 141.788 137.462 145.096 148.207 144.4C154.099 141.092 164.115 132.177 157.045 122.984C154.098 118.109 146.126 109.822 137.807 115.672C134.34 119.85 129.486 128.835 137.807 131.342C141.274 130.993 148.207 129.566 148.207 126.641" stroke="black" stroke-width="5" stroke-linecap="round" stroke-linejoin="round"/>
<path d="M241.207 101.569C231.501 100.872 211.776 104.18 210.529 122.984C209.283 141.788 230.462 145.096 241.207 144.4C247.099 141.092 257.115 132.177 250.045 122.984C247.098 118.109 239.126 109.822 230.807 115.672C227.34 119.85 222.486 128.835 230.807 131.342C234.274 130.993 241.207 129.566 241.207 126.641" stroke="black" stroke-width="5" stroke-linecap="round" stroke-linejoin="round"/>
<path d="M203.977 201.984C203.977 215.104 195.087 224.984 184.977 224.984C174.866 224.984 165.977 215.104 165.977 201.984C165.977 188.865 174.866 178.984 184.977 178.984C195.087 178.984 203.977 188.865 203.977 201.984Z" fill="#FF8989" stroke="black" stroke-width="5" stroke-linecap="round" stroke-linejoin="round"/>
<path d="M51.2549 373.848H45.4468V316.973H51.2549V373.848ZM38.3691 343.697H28.562V338.682H38.3691V343.697ZM40.21 371.15H34.5605V318.147H40.21V371.15ZM30.1172 331.287H2.1875V326.431H30.1172V331.287ZM16.0571 334.715C18.3634 334.715 20.437 335.276 22.2778 336.397C24.1398 337.497 25.5786 339.052 26.5942 341.062C27.631 343.051 28.1494 345.315 28.1494 347.854C28.1494 350.394 27.631 352.668 26.5942 354.678C25.5786 356.667 24.1398 358.222 22.2778 359.344C20.437 360.465 18.3634 361.047 16.0571 361.089C13.772 361.047 11.709 360.465 9.86816 359.344C8.0485 358.222 6.62028 356.667 5.5835 354.678C4.54671 352.668 4.02832 350.394 4.02832 347.854C4.02832 345.315 4.54671 343.051 5.5835 341.062C6.62028 339.052 8.0485 337.497 9.86816 336.397C11.709 335.276 13.772 334.715 16.0571 334.715ZM16.0571 339.825C14.7453 339.825 13.571 340.163 12.5342 340.84C11.5186 341.517 10.7251 342.459 10.1538 343.665C9.58252 344.871 9.29688 346.268 9.29688 347.854C9.29688 349.441 9.58252 350.848 10.1538 352.076C10.7251 353.303 11.5186 354.255 12.5342 354.932C13.571 355.609 14.7453 355.948 16.0571 355.948C17.369 355.948 18.5433 355.609 19.5801 354.932C20.638 354.255 21.4526 353.303 22.0239 352.076C22.6164 350.848 22.9126 349.441 22.9126 347.854C22.9126 346.268 22.6164 344.871 22.0239 343.665C21.4526 342.459 20.638 341.517 19.5801 340.84C18.5433 340.163 17.369 339.825 16.0571 339.825ZM19.1992 329.319H13.1689V318.465H19.1992V329.319ZM110.479 351.949H58.4277V347.093H110.479V351.949ZM87.4048 350.203H81.4697V339.92H87.4048V350.203ZM103.909 332.588H71.0913V339.856H65.1245V328.208H97.8784V323.289H64.9658V318.497H103.909V332.588ZM105.083 342.332H65.1245V337.667H105.083V342.332ZM84.3896 355.345C88.6003 355.345 92.1761 355.704 95.1172 356.424C98.0794 357.122 100.343 358.159 101.909 359.534C103.475 360.91 104.258 362.592 104.258 364.581C104.258 366.548 103.475 368.22 101.909 369.595C100.343 370.971 98.0794 372.007 95.1172 372.706C92.1761 373.425 88.6003 373.785 84.3896 373.785C80.1367 373.785 76.5186 373.425 73.5352 372.706C70.5518 372.007 68.2878 370.971 66.7432 369.595C65.1986 368.22 64.4263 366.548 64.4263 364.581C64.4263 362.592 65.1986 360.91 66.7432 359.534C68.2878 358.159 70.5518 357.122 73.5352 356.424C76.5186 355.704 80.1367 355.345 84.3896 355.345ZM84.3896 359.947C81.3639 359.947 78.8249 360.116 76.7725 360.455C74.7201 360.793 73.1755 361.312 72.1387 362.01C71.1019 362.708 70.5835 363.565 70.5835 364.581C70.5835 365.575 71.1125 366.432 72.1704 367.151C73.2284 367.871 74.7729 368.41 76.8042 368.77C78.8566 369.13 81.3851 369.31 84.3896 369.31C87.3519 369.31 89.8486 369.13 91.8799 368.77C93.9323 368.41 95.4875 367.871 96.5454 367.151C97.6034 366.432 98.1323 365.575 98.1323 364.581C98.1323 363.565 97.6034 362.708 96.5454 362.01C95.4875 361.312 93.9535 360.793 91.9434 360.455C89.9333 360.116 87.4154 359.947 84.3896 359.947ZM163.608 373.848H157.8V316.973H163.608V373.848ZM150.723 343.697H140.916V338.682H150.723V343.697ZM152.563 371.15H146.914V318.147H152.563V371.15ZM142.471 331.287H114.541V326.431H142.471V331.287ZM128.411 334.715C130.717 334.715 132.791 335.276 134.631 336.397C136.493 337.497 137.932 339.052 138.948 341.062C139.985 343.051 140.503 345.315 140.503 347.854C140.503 350.394 139.985 352.668 138.948 354.678C137.932 356.667 136.493 358.222 134.631 359.344C132.791 360.465 130.717 361.047 128.411 361.089C126.125 361.047 124.062 360.465 122.222 359.344C120.402 358.222 118.974 356.667 117.937 354.678C116.9 352.668 116.382 350.394 116.382 347.854C116.382 345.315 116.9 343.051 117.937 341.062C118.974 339.052 120.402 337.497 122.222 336.397C124.062 335.276 126.125 334.715 128.411 334.715ZM128.411 339.825C127.099 339.825 125.924 340.163 124.888 340.84C123.872 341.517 123.079 342.459 122.507 343.665C121.936 344.871 121.65 346.268 121.65 347.854C121.65 349.441 121.936 350.848 122.507 352.076C123.079 353.303 123.872 354.255 124.888 354.932C125.924 355.609 127.099 355.948 128.411 355.948C129.722 355.948 130.897 355.609 131.934 354.932C132.992 354.255 133.806 353.303 134.377 352.076C134.97 350.848 135.266 349.441 135.266 347.854C135.266 346.268 134.97 344.871 134.377 343.665C133.806 342.459 132.992 341.517 131.934 340.84C130.897 340.163 129.722 339.825 128.411 339.825ZM131.553 329.319H125.522V318.465H131.553V329.319ZM222.832 351.949H170.781V347.093H222.832V351.949ZM199.758 350.203H193.823V339.92H199.758V350.203ZM216.262 332.588H183.445V339.856H177.478V328.208H210.232V323.289H177.319V318.497H216.262V332.588ZM217.437 342.332H177.478V337.667H217.437V342.332ZM196.743 355.345C200.954 355.345 204.53 355.704 207.471 356.424C210.433 357.122 212.697 358.159 214.263 359.534C215.828 360.91 216.611 362.592 216.611 364.581C216.611 366.548 215.828 368.22 214.263 369.595C212.697 370.971 210.433 372.007 207.471 372.706C204.53 373.425 200.954 373.785 196.743 373.785C192.49 373.785 188.872 373.425 185.889 372.706C182.905 372.007 180.641 370.971 179.097 369.595C177.552 368.22 176.78 366.548 176.78 364.581C176.78 362.592 177.552 360.91 179.097 359.534C180.641 358.159 182.905 357.122 185.889 356.424C188.872 355.704 192.49 355.345 196.743 355.345ZM196.743 359.947C193.717 359.947 191.178 360.116 189.126 360.455C187.074 360.793 185.529 361.312 184.492 362.01C183.455 362.708 182.937 363.565 182.937 364.581C182.937 365.575 183.466 366.432 184.524 367.151C185.582 367.871 187.126 368.41 189.158 368.77C191.21 369.13 193.739 369.31 196.743 369.31C199.705 369.31 202.202 369.13 204.233 368.77C206.286 368.41 207.841 367.871 208.899 367.151C209.957 366.432 210.486 365.575 210.486 364.581C210.486 363.565 209.957 362.708 208.899 362.01C207.841 361.312 206.307 360.793 204.297 360.455C202.287 360.116 199.769 359.947 196.743 359.947ZM232.131 381.624H226.768L230.132 364.104H237.273L232.131 381.624ZM311.382 350.901H259.521V346.014H311.382V350.901ZM288.435 347.378H282.405V337.825H288.435V347.378ZM305.002 373.848H298.972V360.74H265.266V355.979H305.002V373.848ZM272.312 324.463H298.655V318.338H304.622V339.856H266.345V318.338H272.312V324.463ZM298.655 335.064V328.97H272.312V335.064H298.655ZM334.297 326.685C334.297 330.113 333.662 333.308 332.393 336.27C331.123 339.211 329.272 341.761 326.838 343.919C324.405 346.077 321.528 347.706 318.206 348.807L315.095 344.046C318.015 343.094 320.554 341.75 322.712 340.015C324.871 338.259 326.521 336.228 327.664 333.921C328.827 331.615 329.409 329.203 329.409 326.685V322.21H334.297V326.685ZM335.503 326.622C335.503 328.991 336.042 331.255 337.122 333.414C338.222 335.551 339.809 337.455 341.882 339.126C343.977 340.777 346.442 342.046 349.277 342.935L346.389 347.601C343.11 346.585 340.274 345.04 337.883 342.967C335.492 340.872 333.662 338.428 332.393 335.635C331.144 332.821 330.52 329.817 330.52 326.622V322.21H335.503V326.622ZM347.722 325.511H316.968V320.591H347.722V325.511ZM360.386 348.204H354.387V316.973H360.386V348.204ZM368.669 334.81H358.704V329.795H368.669V334.81ZM329.917 357.186H354.387V350.774H360.386V373.15H323.918V350.774H329.917V357.186ZM354.387 368.262V361.851H329.917V368.262H354.387Z" fill="black"/>
<defs>
<radialGradient id="paint0_radial_1486_9759" cx="0" cy="0" r="1" gradientUnits="userSpaceOnUse" gradientTransform="translate(185.771 144.833) rotate(90) scale(144.833)">
<stop stop-color="#53C1FF"/>
<stop offset="1" stop-color="#7ECDF9"/>
</radialGradient>
</defs>
</svg>
