<svg width="39" height="41" viewBox="0 0 39 41" fill="none" xmlns="http://www.w3.org/2000/svg">
<path d="M25.96 31.7042V33.3753C25.96 35.1481 25.2557 36.8483 24.0022 38.1018C22.7486 39.3554 21.0485 40.0596 19.2757 40.0596C17.5029 40.0596 15.8027 39.3554 14.5491 38.1018C13.2956 36.8483 12.5913 35.1481 12.5913 33.3753V31.7042M37.2063 28.3025C34.5243 25.0199 32.6307 23.3488 32.6307 14.2989C32.6307 6.01137 27.4853 3.05878 24.0022 1.62478C20.519 0.190762 16.6464 1.01082 14.9008 1.62478C11.4134 3.06087 5.92583 6.00301 5.92583 14.2989C5.9206 23.3488 4.02706 25.0199 1.34498 28.3025C0.233712 29.6624 1.20712 31.7042 3.15079 31.7042H35.411C37.3442 31.7042 38.3113 29.6561 37.2063 28.3025Z" stroke="black" stroke-width="1.5" stroke-linecap="round" stroke-linejoin="round"/>
</svg>
