<svg width="31" height="30" viewBox="0 0 31 30" fill="none" xmlns="http://www.w3.org/2000/svg">
<path fill-rule="evenodd" clip-rule="evenodd" d="M22.5221 8.88411C22.5221 12.8355 19.3189 16.0387 15.3675 16.0387C11.4161 16.0387 8.21289 12.8355 8.21289 8.88411C8.21289 4.93272 11.4161 1.72949 15.3675 1.72949C19.3189 1.72949 22.5221 4.93272 22.5221 8.88411ZM6.87665 19.9795C4.09351 19.9795 1.81641 22.2566 1.81641 25.0397V27.7737H28.9238V25.0397C28.9238 22.2566 26.6467 19.9795 23.8636 19.9795H6.87665Z" fill="#262626"/>
<path d="M1.81641 27.7737H0.316406V29.2737H1.81641V27.7737ZM28.9238 27.7737V29.2737H30.4238V27.7737H28.9238ZM15.3675 17.5387C20.1473 17.5387 24.0221 13.6639 24.0221 8.88411H21.0221C21.0221 12.0071 18.4905 14.5387 15.3675 14.5387V17.5387ZM6.71289 8.88411C6.71289 13.6639 10.5877 17.5387 15.3675 17.5387V14.5387C12.2445 14.5387 9.71289 12.0071 9.71289 8.88411H6.71289ZM15.3675 0.229492C10.5877 0.229492 6.71289 4.1043 6.71289 8.88411H9.71289C9.71289 5.76115 12.2445 3.22949 15.3675 3.22949V0.229492ZM24.0221 8.88411C24.0221 4.1043 20.1473 0.229492 15.3675 0.229492V3.22949C18.4905 3.22949 21.0221 5.76115 21.0221 8.88411H24.0221ZM3.31641 25.0397C3.31641 23.085 4.92194 21.4795 6.87665 21.4795V18.4795C3.26509 18.4795 0.316406 21.4282 0.316406 25.0397H3.31641ZM3.31641 27.7737V25.0397H0.316406V27.7737H3.31641ZM28.9238 26.2737H1.81641V29.2737H28.9238V26.2737ZM27.4238 25.0397V27.7737H30.4238V25.0397H27.4238ZM23.8636 21.4795C25.8183 21.4795 27.4238 23.085 27.4238 25.0397H30.4238C30.4238 21.4282 27.4752 18.4795 23.8636 18.4795V21.4795ZM6.87665 21.4795H23.8636V18.4795H6.87665V21.4795Z" fill="#262626"/>
</svg>

