<svg width="38" height="50" viewBox="0 0 38 50" fill="none" xmlns="http://www.w3.org/2000/svg">
<path d="M37.8343 19.5031C37.8343 29.8202 29.4706 38.1839 19.1535 38.1839C8.83634 38.1839 0.472656 29.8202 0.472656 19.5031C0.472656 9.18595 8.83634 0.822266 19.1535 0.822266C29.4706 0.822266 37.8343 9.18595 37.8343 19.5031Z" fill="url(#paint0_radial_1351_78162)"/>
<path fill-rule="evenodd" clip-rule="evenodd" d="M14.9967 16.6472C12.6616 14.8555 10.1215 15.8941 9.14004 16.6472C8.99877 16.7556 8.79958 16.7246 8.69514 16.578C8.5907 16.4313 8.62056 16.2246 8.76184 16.1162C9.85852 15.2746 12.7219 14.0805 15.3749 16.1162C15.5162 16.2246 15.546 16.4313 15.4416 16.578C15.3372 16.7246 15.138 16.7556 14.9967 16.6472Z" fill="black"/>
<path fill-rule="evenodd" clip-rule="evenodd" d="M28.7389 16.6472C26.4037 14.8555 23.8637 15.8941 22.8822 16.6472C22.741 16.7556 22.5418 16.7246 22.4373 16.578C22.3329 16.4313 22.3628 16.2246 22.504 16.1162C23.6007 15.2746 26.464 14.0805 29.1171 16.1162C29.2583 16.2246 29.2882 16.4313 29.1838 16.578C29.0794 16.7246 28.8802 16.7556 28.7389 16.6472Z" fill="black"/>
<path fill-rule="evenodd" clip-rule="evenodd" d="M19.768 22.9543C19.319 22.9692 18.86 23.1877 18.5769 23.3913C18.4328 23.495 18.2349 23.4579 18.1348 23.3085C18.0348 23.1591 18.0706 22.954 18.2147 22.8503C18.5618 22.6005 19.1382 22.3162 19.7477 22.2961C20.0575 22.2858 20.3837 22.3438 20.6894 22.5181C20.9966 22.6933 21.2636 22.975 21.4694 23.3793C21.4874 23.4147 21.4991 23.4531 21.5038 23.4928C21.5497 23.8806 21.4463 24.432 20.9764 24.8109C20.8491 24.9135 20.7006 24.9989 20.529 25.0639C21.0314 25.3709 21.5061 25.8478 21.5061 26.5417C21.5061 26.5727 21.5019 26.6036 21.4936 26.6334C21.3953 26.9845 21.1268 27.4431 20.6289 27.6958C20.1182 27.9549 19.4303 27.966 18.5609 27.5401C18.4022 27.4624 18.3344 27.2661 18.4094 27.1017C18.4843 26.9372 18.6737 26.8669 18.8323 26.9446C19.5783 27.3101 20.0575 27.2524 20.3496 27.1042C20.6331 26.9603 20.7998 26.7015 20.8694 26.4953C20.8474 26.1447 20.5762 25.8333 20.1043 25.572C19.7364 25.3682 19.3045 25.2299 18.9469 25.1506C18.8455 25.1345 18.7408 25.115 18.6326 25.092C18.4644 25.0561 18.3541 24.8882 18.3836 24.7128C18.4132 24.5375 18.5718 24.4182 18.7417 24.4435C18.8387 24.4579 18.9464 24.4775 19.0614 24.5026C19.9054 24.6336 20.3562 24.4766 20.5863 24.291C20.8173 24.1048 20.8872 23.8401 20.8778 23.6304C20.7293 23.3595 20.5571 23.1943 20.3832 23.0952C20.196 22.9884 19.9873 22.947 19.768 22.9543Z" fill="black"/>
<path d="M29.8572 41.9668C30.3929 41.9668 30.8575 42.0228 31.2511 42.1349C31.6447 42.2469 31.9467 42.4096 32.1571 42.6227C32.3703 42.8332 32.4769 43.0846 32.4769 43.3771C32.4769 43.6668 32.3703 43.9155 32.1571 44.1232C31.9467 44.3282 31.6447 44.4867 31.2511 44.5988C30.8575 44.7108 30.3929 44.7669 29.8572 44.7669C29.3243 44.7669 28.8596 44.7108 28.4633 44.5988C28.0698 44.4867 27.765 44.3282 27.5491 44.1232C27.3332 43.9155 27.2252 43.6668 27.2252 43.3771C27.2252 43.0846 27.3332 42.8332 27.5491 42.6227C27.765 42.4096 28.0698 42.2469 28.4633 42.1349C28.8596 42.0228 29.3243 41.9668 29.8572 41.9668ZM29.8572 42.5817C29.4828 42.5817 29.1575 42.6132 28.8815 42.676C28.6082 42.7362 28.3977 42.8264 28.2502 42.9466C28.1053 43.0669 28.0329 43.2104 28.0329 43.3771C28.0329 43.5411 28.1039 43.6804 28.2461 43.7952C28.3909 43.91 28.6 43.9989 28.8733 44.0617C29.1493 44.1218 29.4773 44.1546 29.8572 44.1601C30.2289 44.1546 30.5514 44.1218 30.8247 44.0617C31.1008 43.9989 31.3112 43.91 31.4561 43.7952C31.6037 43.6804 31.6775 43.5411 31.6775 43.3771C31.6775 43.2104 31.6037 43.0669 31.4561 42.9466C31.3112 42.8264 31.1008 42.7362 30.8247 42.676C30.5514 42.6132 30.2289 42.5817 29.8572 42.5817ZM32.3908 49.0674H27.3113V46.6199H32.3908V49.0674ZM28.0821 48.436H31.6283V47.243H28.0821V48.436ZM33.2066 45.968H26.5078V45.3326H33.2066V45.968Z" fill="black"/>
<path d="M22.977 45.1023H22.2103V44.0036H22.977V45.1023ZM22.7597 42.499C22.7597 42.8488 22.6326 43.1618 22.3784 43.4378C22.1242 43.7139 21.7744 43.938 21.3289 44.1102C20.8861 44.2796 20.3874 44.3876 19.8325 44.434L19.5825 43.856C20.0498 43.8204 20.4734 43.7385 20.8533 43.61C21.236 43.4815 21.5353 43.3203 21.7512 43.1262C21.9698 42.9295 22.0791 42.7204 22.0791 42.499V42.2817H22.7597V42.499ZM23.1163 42.499C23.1163 42.7231 23.2243 42.9322 23.4402 43.1262C23.6561 43.3203 23.954 43.4815 24.3339 43.61C24.7166 43.7385 25.1429 43.8204 25.613 43.856L25.3629 44.434C24.8109 44.3876 24.3134 44.2796 23.8707 44.1102C23.4307 43.938 23.0822 43.7152 22.8253 43.4419C22.5711 43.1659 22.444 42.8516 22.444 42.499V42.2817H23.1163V42.499ZM25.3507 42.6261H19.8612V42.0234H25.3507V42.6261ZM25.3302 46.9348H19.8694V46.3363H25.3302V46.9348ZM25.9656 45.4384H19.2422V44.803H25.9656V45.4384ZM22.5916 47.2505C23.0672 47.2505 23.4716 47.2874 23.8051 47.3612C24.1385 47.4322 24.3927 47.5416 24.5676 47.6891C24.7425 47.834 24.83 48.0103 24.83 48.218C24.83 48.4284 24.7425 48.6061 24.5676 48.7509C24.3927 48.8958 24.1385 49.0051 23.8051 49.0789C23.4716 49.1554 23.0672 49.1937 22.5916 49.1937C21.8755 49.1937 21.3248 49.1103 20.9394 48.9436C20.5568 48.7796 20.3655 48.5378 20.3655 48.218C20.3655 48.0048 20.4516 47.8272 20.6238 47.685C20.796 47.5402 21.0474 47.4322 21.3781 47.3612C21.7115 47.2874 22.116 47.2505 22.5916 47.2505ZM22.5916 47.7834C22.2746 47.7834 22.0108 47.7998 21.8004 47.8326C21.5899 47.8627 21.43 47.9092 21.3207 47.972C21.2114 48.0349 21.1567 48.1169 21.1567 48.218C21.1567 48.3137 21.2127 48.3956 21.3248 48.464C21.4369 48.5323 21.5995 48.5815 21.8127 48.6116C22.0286 48.6444 22.2882 48.6608 22.5916 48.6608C22.9032 48.6608 23.1655 48.6444 23.3787 48.6116C23.5946 48.5815 23.7573 48.5323 23.8666 48.464C23.9759 48.3956 24.0306 48.3137 24.0306 48.218C24.0306 48.1169 23.9759 48.0349 23.8666 47.972C23.7573 47.9092 23.5987 47.8627 23.391 47.8326C23.1833 47.7998 22.9168 47.7834 22.5916 47.7834ZM22.9852 46.7216H22.2062V45.6926H22.9852V46.7216Z" fill="black"/>
<path d="M18.7117 46.2879H11.9883V45.6647H18.7117V46.2879ZM15.8009 47.6407H15.0302V45.9763H15.8009V47.6407ZM17.9656 49.0141H12.8246V48.3705H17.9656V49.0141ZM13.5953 48.6247H12.8246V46.993H13.5953V48.6247ZM13.6486 42.9344H17.0513V42.0488H17.8221V45.0129H12.8779V42.0488H13.6486V42.9344ZM17.0513 44.3897V43.5206H13.6486V44.3897H17.0513Z" fill="black"/>
<path d="M10.8474 49.1571H10.0602V41.8105H10.8474V49.1571ZM8.66635 42.6018C8.66635 43.3506 8.5502 44.0435 8.31789 44.6803C8.08831 45.3144 7.71934 45.8993 7.21098 46.4349C6.70263 46.9679 6.04122 47.4298 5.22676 47.8206L4.80859 47.1893C5.51646 46.8558 6.09725 46.4677 6.55094 46.025C7.00737 45.5822 7.3449 45.0875 7.56355 44.5409C7.7822 43.9943 7.89152 43.3903 7.89152 42.7289V42.6018H8.66635ZM8.22769 43.2249H5.16526V42.6018H8.22769V43.2249Z" fill="black"/>
<defs>
<radialGradient id="paint0_radial_1351_78162" cx="0" cy="0" r="1" gradientUnits="userSpaceOnUse" gradientTransform="translate(19.1535 19.5031) rotate(90) scale(18.6808)">
<stop stop-color="#FFD361"/>
<stop offset="1" stop-color="#F9D77F"/>
</radialGradient>
</defs>
</svg>
