<svg width="290" height="376" viewBox="0 0 290 376" fill="none" xmlns="http://www.w3.org/2000/svg">
<circle cx="144.833" cy="144.833" r="144.833" fill="url(#paint0_radial_1486_9765)"/>
<mask id="path-2-outside-1_1486_9765" maskUnits="userSpaceOnUse" x="54.125" y="174.105" width="182" height="79" fill="black">
<rect fill="white" x="54.125" y="174.105" width="182" height="79"/>
<path fill-rule="evenodd" clip-rule="evenodd" d="M56.125 176.105C63.7434 218.196 100.574 250.119 144.861 250.119C189.147 250.119 225.978 218.196 233.596 176.105H56.125Z"/>
</mask>
<path fill-rule="evenodd" clip-rule="evenodd" d="M56.125 176.105C63.7434 218.196 100.574 250.119 144.861 250.119C189.147 250.119 225.978 218.196 233.596 176.105H56.125Z" fill="#FF8989"/>
<path d="M56.125 176.105V174.105C55.5322 174.105 54.97 174.368 54.59 174.823C54.21 175.278 54.0514 175.878 54.157 176.462L56.125 176.105ZM233.596 176.105L235.564 176.462C235.67 175.878 235.511 175.278 235.131 174.823C234.751 174.368 234.189 174.105 233.596 174.105V176.105ZM144.861 248.119C101.558 248.119 65.5422 216.905 58.093 175.749L54.157 176.462C61.9446 219.487 99.5896 252.119 144.861 252.119V248.119ZM231.628 175.749C224.179 216.905 188.163 248.119 144.861 248.119V252.119C190.132 252.119 227.777 219.487 235.564 176.462L231.628 175.749ZM233.596 174.105H56.125V178.105H233.596V174.105Z" fill="black" mask="url(#path-2-outside-1_1486_9765)"/>
<path d="M74.7422 98.7109L115.805 122.515L74.7422 144.832" stroke="black" stroke-width="5" stroke-linecap="round" stroke-linejoin="round"/>
<path d="M213.406 98.7109L172.344 122.515L213.406 144.832" stroke="black" stroke-width="5" stroke-linecap="round" stroke-linejoin="round"/>
<path d="M139.117 354.143H133.373V318.247H139.117V354.143ZM134.991 338.273H124.549V333.322H134.991V338.273ZM126.803 352.175H121.153V319.357H126.803V352.175ZM119.059 329.514H90.3037V324.753H119.059V329.514ZM104.745 332.211C107.136 332.211 109.262 332.613 111.124 333.417C113.007 334.2 114.467 335.343 115.504 336.845C116.541 338.326 117.059 340.051 117.059 342.019C117.059 343.923 116.541 345.616 115.504 347.097C114.467 348.557 113.007 349.699 111.124 350.524C109.262 351.328 107.136 351.73 104.745 351.73C102.417 351.73 100.322 351.328 98.4604 350.524C96.5985 349.699 95.1491 348.557 94.1123 347.097C93.0755 345.616 92.5571 343.923 92.5571 342.019C92.5571 340.051 93.0755 338.326 94.1123 336.845C95.1491 335.343 96.5879 334.2 98.4287 333.417C100.27 332.613 102.375 332.211 104.745 332.211ZM104.745 336.591C103.412 336.591 102.227 336.813 101.19 337.258C100.174 337.681 99.3703 338.305 98.7778 339.13C98.2065 339.956 97.9209 340.918 97.9209 342.019C97.9209 343.055 98.2065 343.976 98.7778 344.78C99.3703 345.584 100.174 346.208 101.19 346.652C102.227 347.097 103.412 347.319 104.745 347.319C106.099 347.319 107.294 347.097 108.331 346.652C109.368 346.208 110.172 345.584 110.743 344.78C111.314 343.976 111.6 343.055 111.6 342.019C111.6 340.918 111.314 339.956 110.743 339.13C110.172 338.305 109.368 337.681 108.331 337.258C107.294 336.813 106.099 336.591 104.745 336.591ZM107.728 327.736H101.729V318.723H107.728V327.736ZM120.106 354.968C124.147 354.968 127.607 355.359 130.484 356.142C133.383 356.925 135.594 358.078 137.118 359.602C138.662 361.104 139.435 362.934 139.435 365.092C139.435 367.166 138.662 368.954 137.118 370.456C135.594 371.958 133.373 373.101 130.453 373.884C127.554 374.667 124.105 375.058 120.106 375.058C116.107 375.058 112.658 374.667 109.759 373.884C106.861 373.101 104.639 371.958 103.094 370.456C101.571 368.954 100.809 367.166 100.809 365.092C100.809 362.934 101.571 361.104 103.094 359.602C104.639 358.078 106.861 356.925 109.759 356.142C112.658 355.359 116.107 354.968 120.106 354.968ZM120.106 359.633C117.271 359.591 114.859 359.781 112.87 360.205C110.902 360.607 109.4 361.231 108.363 362.077C107.347 362.902 106.839 363.907 106.839 365.092C106.839 366.235 107.347 367.208 108.363 368.012C109.4 368.795 110.912 369.388 112.901 369.79C114.911 370.213 117.313 370.424 120.106 370.424C122.941 370.424 125.343 370.213 127.311 369.79C129.299 369.388 130.812 368.795 131.849 368.012C132.886 367.208 133.404 366.235 133.404 365.092C133.404 363.865 132.886 362.849 131.849 362.045C130.812 361.22 129.299 360.607 127.311 360.205C125.343 359.781 122.941 359.591 120.106 359.633ZM198.658 352.175H146.798V347.287H198.658V352.175ZM175.711 348.652H169.681V339.099H175.711V348.652ZM192.279 375.122H186.249V362.014H152.542V357.253H192.279V375.122ZM159.588 325.737H185.931V319.611H191.898V341.13H153.622V319.611H159.588V325.737ZM185.931 336.337V330.244H159.588V336.337H185.931Z" fill="black"/>
<defs>
<radialGradient id="paint0_radial_1486_9765" cx="0" cy="0" r="1" gradientUnits="userSpaceOnUse" gradientTransform="translate(144.833 144.833) rotate(90) scale(144.833)">
<stop stop-color="#FFF27E"/>
<stop offset="1" stop-color="#FFF59E"/>
</radialGradient>
</defs>
</svg>
