<svg width="42" height="41" viewBox="0 0 42 41" fill="none" xmlns="http://www.w3.org/2000/svg">
<path fill-rule="evenodd" clip-rule="evenodd" d="M14.3125 20.5176C14.3125 16.8135 17.3238 13.813 21.036 13.813C24.7483 13.813 27.7596 16.8135 27.7596 20.5176C27.7596 24.2217 24.7483 27.2222 21.036 27.2222C17.3238 27.2222 14.3125 24.2217 14.3125 20.5176ZM21.036 15.6073C18.3141 15.6073 16.1098 17.8067 16.1098 20.5176C16.1098 23.2285 18.3141 25.4279 21.036 25.4279C23.7579 25.4279 25.9623 23.2285 25.9623 20.5176C25.9623 17.8067 23.7579 15.6073 21.036 15.6073Z" fill="black"/>
<path fill-rule="evenodd" clip-rule="evenodd" d="M18.1901 0.931231C18.2941 0.537247 18.651 0.262695 19.0591 0.262695H22.8536C23.2619 0.262695 23.6188 0.537446 23.7227 0.931621L24.8175 5.08705L29.152 6.86426L32.104 4.34908C32.4604 4.04538 32.9908 4.0661 33.3224 4.39669L37.2057 8.26834C37.5366 8.59828 37.5587 9.12648 37.2565 9.48283L34.7463 12.4427L36.4951 16.653L40.6751 17.7127C41.0736 17.8137 41.3526 18.1718 41.3525 18.5823L41.3523 22.4098C41.3523 22.8184 41.0758 23.1753 40.6797 23.2781L36.4798 24.3675L34.7295 28.5814L37.2557 31.5524C37.5587 31.9087 37.5369 32.4375 37.2057 32.7678L33.3224 36.6394C32.985 36.9759 32.443 36.9906 32.0878 36.6729L32.0599 36.648L31.979 36.5759C31.9088 36.5134 31.8073 36.4233 31.6827 36.3131C31.4335 36.0927 31.0926 35.7927 30.7255 35.4741C30.1737 34.9952 29.5887 34.4971 29.1641 34.1576L24.9132 35.9128L23.8503 40.0968C23.7492 40.4948 23.3905 40.7734 22.9792 40.7734H19.096C18.6845 40.7734 18.3256 40.4945 18.2247 40.0962L17.1649 35.9122L13.0184 34.2115L9.95508 36.7005C9.59787 36.9907 9.07868 36.9644 8.7528 36.6394L4.86954 32.7678C4.5322 32.4315 4.51666 31.8907 4.83415 31.5356L7.39859 28.6675L5.62539 24.4736L1.38492 23.3194C0.993923 23.213 0.722656 22.8585 0.722656 22.4539V18.5822C0.722656 18.1652 1.0105 17.8032 1.41732 17.7085L5.57095 16.742L7.29338 12.5199L4.80746 9.46929C4.51657 9.11232 4.54339 8.59351 4.86954 8.26834L8.7528 4.39669C9.08922 4.06127 9.62914 4.04552 9.98461 4.36074L12.8705 6.91986L17.0759 5.15245L18.1901 0.931231ZM32.6511 34.7729L35.3492 32.0829L33.004 29.3247C32.7858 29.0682 32.7298 28.7114 32.859 28.4005L34.9909 23.2679C35.0987 23.0081 35.3224 22.8139 35.595 22.7432L39.5551 21.7159L39.5552 19.28L35.6163 18.2814C35.3416 18.2117 35.1159 18.0168 35.0074 17.7555L32.876 12.6244C32.7471 12.3139 32.8028 11.9576 33.0203 11.701L35.35 8.95404L32.6395 6.2517L29.9014 8.58462C29.6452 8.80292 29.2882 8.85984 28.9767 8.73209L23.7209 6.57711C23.4602 6.47024 23.2649 6.2475 23.1932 5.97545L22.1608 2.05698H19.7516L18.7011 6.03661C18.6301 6.30582 18.4379 6.52684 18.1808 6.63486L13.0458 8.79297C12.7269 8.92703 12.3591 8.86631 12.1004 8.63685L9.42389 6.26343L6.71379 8.96543L9.02357 11.7999C9.23074 12.0541 9.28256 12.4009 9.15874 12.7044L7.06009 17.8488C6.95008 18.1184 6.71584 18.318 6.4318 18.3841L2.51995 19.2943V21.7686L6.51975 22.8573C6.78591 22.9297 7.004 23.1202 7.11128 23.3739L9.2755 28.4926C9.41051 28.812 9.3492 29.1804 9.11799 29.439L6.74079 32.0976L9.44927 34.798L12.2983 32.4831C12.5538 32.2756 12.9025 32.2241 13.2071 32.3491L18.2667 34.4243C18.5301 34.5323 18.7266 34.7586 18.7964 35.0342L19.7957 38.9792H22.28L23.2819 35.0353C23.3516 34.7607 23.5472 34.5351 23.8095 34.4268L28.956 32.3019C29.2423 32.1837 29.5694 32.221 29.8215 32.4007C30.2929 32.7367 31.1754 33.4871 31.9047 34.12C32.1766 34.356 32.4339 34.5816 32.6511 34.7729Z" fill="black"/>
</svg>
