<svg width="31" height="30" viewBox="0 0 31 30" fill="none" xmlns="http://www.w3.org/2000/svg">
<path fill-rule="evenodd" clip-rule="evenodd" d="M22.5768 8.88118C22.5768 12.8326 19.3736 16.0358 15.4222 16.0358C11.4708 16.0358 8.26758 12.8326 8.26758 8.88118C8.26758 4.92979 11.4708 1.72656 15.4222 1.72656C19.3736 1.72656 22.5768 4.92979 22.5768 8.88118ZM6.93133 19.9766C4.1482 19.9766 1.87109 22.2537 1.87109 25.0368V27.7707H28.9785V25.0368C28.9785 22.2537 26.7014 19.9766 23.9183 19.9766H6.93133Z" fill="#262626"/>
<path d="M1.87109 27.7707H0.371094V29.2707H1.87109V27.7707ZM28.9785 27.7707V29.2707H30.4785V27.7707H28.9785ZM15.4222 17.5358C20.202 17.5358 24.0768 13.661 24.0768 8.88118H21.0768C21.0768 12.0041 18.5452 14.5358 15.4222 14.5358V17.5358ZM6.76758 8.88118C6.76758 13.661 10.6424 17.5358 15.4222 17.5358V14.5358C12.2992 14.5358 9.76758 12.0041 9.76758 8.88118H6.76758ZM15.4222 0.226562C10.6424 0.226562 6.76758 4.10137 6.76758 8.88118H9.76758C9.76758 5.75822 12.2992 3.22656 15.4222 3.22656V0.226562ZM24.0768 8.88118C24.0768 4.10137 20.202 0.226562 15.4222 0.226562V3.22656C18.5452 3.22656 21.0768 5.75822 21.0768 8.88118H24.0768ZM3.37109 25.0368C3.37109 23.0821 4.97663 21.4766 6.93133 21.4766V18.4766C3.31978 18.4766 0.371094 21.4252 0.371094 25.0368H3.37109ZM3.37109 27.7707V25.0368H0.371094V27.7707H3.37109ZM28.9785 26.2707H1.87109V29.2707H28.9785V26.2707ZM27.4785 25.0368V27.7707H30.4785V25.0368H27.4785ZM23.9183 21.4766C25.873 21.4766 27.4785 23.0821 27.4785 25.0368H30.4785C30.4785 21.4252 27.5298 18.4766 23.9183 18.4766V21.4766ZM6.93133 21.4766H23.9183V18.4766H6.93133V21.4766Z" fill="#262626"/>
</svg>
