<svg width="41" height="41" viewBox="0 0 41 41" fill="none" xmlns="http://www.w3.org/2000/svg">
<circle cx="20.5195" cy="20.3811" r="20.1641" fill="#04DB8F"/>
<path d="M18.3345 23.3782C18.3426 22.3935 18.4321 21.6 18.603 20.9978C18.7739 20.3875 19.0181 19.8992 19.3354 19.533C19.6528 19.1667 20.0841 18.8168 20.6294 18.4832C21.2397 18.1088 21.7036 17.7182 22.021 17.3113C22.3384 16.8962 22.4971 16.4324 22.4971 15.9197C22.4971 15.5209 22.4035 15.171 22.2163 14.8699C22.0373 14.5606 21.7809 14.3246 21.4473 14.1619C21.1217 13.9991 20.7596 13.9177 20.3608 13.9177C19.9784 13.9177 19.6162 14.0032 19.2744 14.1741C18.9408 14.3368 18.6681 14.585 18.4565 14.9187C18.245 15.2524 18.131 15.6511 18.1147 16.115H14.6479C14.6724 15.0082 14.9409 14.0723 15.4536 13.3074C15.9663 12.5424 16.6458 11.9727 17.4922 11.5984C18.3467 11.2159 19.307 11.0247 20.373 11.0247C21.5205 11.0247 22.5337 11.2159 23.4126 11.5984C24.2915 11.9727 24.9751 12.5221 25.4634 13.2463C25.9598 13.9625 26.208 14.8129 26.208 15.7976C26.208 16.766 25.9761 17.588 25.5122 18.2634C25.0565 18.9389 24.4014 19.537 23.5469 20.0579C23.0749 20.3346 22.6965 20.6194 22.4116 20.9124C22.1349 21.2053 21.9233 21.5471 21.7769 21.9377C21.6304 22.3284 21.5571 22.8085 21.5571 23.3782V23.6589H18.3345V23.3782ZM20.019 29.1643C19.6528 29.1643 19.311 29.0707 18.9937 28.8835C18.6763 28.6882 18.4281 28.436 18.249 28.1267C18.07 27.8093 17.9805 27.4675 17.9805 27.1013C17.9805 26.7432 18.07 26.4096 18.249 26.1003C18.4281 25.783 18.6763 25.5347 18.9937 25.3557C19.311 25.1767 19.6528 25.0872 20.019 25.0872C20.3771 25.0872 20.7108 25.1767 21.02 25.3557C21.3374 25.5347 21.5897 25.783 21.7769 26.1003C21.9722 26.4096 22.0698 26.7432 22.0698 27.1013C22.0698 27.4675 21.9722 27.8093 21.7769 28.1267C21.5897 28.436 21.3374 28.6882 21.02 28.8835C20.7108 29.0707 20.3771 29.1643 20.019 29.1643Z" fill="white"/>
</svg>