<svg width="111" height="88" viewBox="0 0 111 88" fill="none" xmlns="http://www.w3.org/2000/svg">
<path d="M105.179 86.9643C104.605 86.9643 104.219 86.4606 104.219 85.9218V85.8398L104.242 79.4213C104.23 79.3627 104.23 79.3158 104.23 79.2573C104.23 78.7185 104.617 78.2148 105.191 78.2148H109.876C110.438 78.2148 110.848 78.7185 110.848 79.2573C110.848 79.8078 110.438 80.3114 109.876 80.3114H106.561L106.55 81.3773H108.236C108.798 81.3773 109.208 81.8809 109.208 82.4314C109.208 82.9819 108.798 83.4739 108.236 83.4739H106.55L106.538 84.8677H109.876C110.438 84.8677 110.848 85.3713 110.848 85.9218C110.848 86.4606 110.438 86.9643 109.876 86.9643H105.179Z" fill="#04DB8F"/>
<path d="M100.814 86.0155C100.814 86.6831 100.287 87.0814 99.6426 87.0814C98.9867 87.0814 98.4714 86.6831 98.4714 86.0155V80.4871H96.9838C96.3748 80.4871 95.9414 79.96 95.9414 79.3627C95.9414 78.7653 96.3748 78.2148 96.9838 78.2148H102.231C102.84 78.2148 103.285 78.7653 103.285 79.3627C103.285 79.96 102.84 80.4871 102.231 80.4871H100.814V86.0155Z" fill="#04DB8F"/>
<path d="M92.7709 86.0155C92.7709 86.6831 92.2439 87.0814 91.5997 87.0814C90.9437 87.0814 90.4284 86.6831 90.4284 86.0155V80.4871H88.9409C88.3318 80.4871 87.8984 79.96 87.8984 79.3627C87.8984 78.7653 88.3318 78.2148 88.9409 78.2148H94.1882C94.7972 78.2148 95.2423 78.7653 95.2423 79.3627C95.2423 79.96 94.7972 80.4871 94.1882 80.4871H92.7709V86.0155Z" fill="#04DB8F"/>
<path d="M81.5229 86.9643C80.949 86.9643 80.5625 86.4606 80.5625 85.9218V85.8398L80.5859 79.4213C80.5742 79.3627 80.5742 79.3158 80.5742 79.2573C80.5742 78.7185 80.9607 78.2148 81.5347 78.2148H86.2198C86.782 78.2148 87.1919 78.7185 87.1919 79.2573C87.1919 79.8078 86.782 80.3114 86.2198 80.3114H82.905L82.8933 81.3773H84.58C85.1422 81.3773 85.5521 81.8809 85.5521 82.4314C85.5521 82.9819 85.1422 83.4739 84.58 83.4739H82.8933L82.8816 84.8677H86.2198C86.782 84.8677 87.1919 85.3713 87.1919 85.9218C87.1919 86.4606 86.782 86.9643 86.2198 86.9643H81.5229Z" fill="#04DB8F"/>
<path d="M74.6987 86.9759C74.0896 86.9759 73.6562 86.4488 73.6562 85.8515V79.1284C73.6562 78.4842 74.1716 78.0977 74.8275 78.0977C75.4717 78.0977 75.9988 78.4842 75.9988 79.1284L75.9754 84.7036H78.6342C79.2432 84.7036 79.6883 85.2541 79.6883 85.8515C79.6883 86.4488 79.2432 86.9759 78.6342 86.9759H74.6987Z" fill="#04DB8F"/>
<path d="M72.7304 85.7696C72.8475 86.3552 72.379 86.9291 71.8637 87.058C71.3014 87.1868 70.669 86.8588 70.5167 86.2732L70.2473 85.0551H67.5768L67.3074 86.2732C67.1434 86.8706 66.4992 87.1751 65.9604 87.058C65.4334 86.9174 64.9883 86.3786 65.0937 85.7813L66.5929 79.1402C66.6983 78.6834 67.1786 78.2148 67.7408 78.2148H70.0833C70.6573 78.2148 71.1258 78.6716 71.2312 79.1402L72.7304 85.7696ZM69.7671 82.8648L69.1697 80.4051H68.6544L68.057 82.8648H69.7671Z" fill="#04DB8F"/>
<path d="M61.1617 76.6445C63.1528 76.6445 64.371 78.1672 64.371 79.8538C64.371 81.3765 63.188 83.028 61.1617 83.028H58.866V86.0381C58.866 86.7995 58.292 87.104 57.6361 87.104C57.0154 87.104 56.5 86.6941 56.5 86.0147V77.8627C56.5 77.1833 56.9919 76.6445 57.6127 76.6445H61.1617ZM61.0328 80.744C61.5716 80.744 61.9581 80.3458 61.9581 79.8538C61.9581 79.3502 61.5716 78.9402 61.0328 78.9402H58.8425V80.744H61.0328Z" fill="#04DB8F"/>
<path d="M48.1653 83.5441C47.6499 84.1414 46.7597 84.2 46.1975 83.5441L45.1434 82.3143V86.0506C45.1434 86.5894 44.71 87.093 44.0072 87.093C43.3162 87.093 42.8945 86.5894 42.8945 86.0506V79.1518C42.8945 78.613 43.3162 78.1211 44.019 78.1211C44.4406 78.1211 44.7569 78.2968 45.0263 78.6247L47.1814 81.143L49.36 78.5545C49.5825 78.2968 49.9573 78.1211 50.3673 78.1211C51.0583 78.1328 51.48 78.6247 51.48 79.1518V86.0506C51.48 86.5894 51.0466 87.093 50.3438 87.093C49.6528 87.093 49.2311 86.5894 49.2311 86.0506V82.3143L48.1653 83.5441Z" fill="#04DB8F"/>
<path d="M36.7137 83.6026V86.0506C36.7137 86.5894 36.2803 87.093 35.5658 87.093C34.8748 87.093 34.4531 86.5894 34.4531 86.0506V79.105C34.4531 78.5662 34.8748 78.0977 35.5658 78.0977C36.2803 78.0977 36.7137 78.5662 36.7137 79.105V81.3304H39.4662V79.105C39.4662 78.5662 39.8995 78.0977 40.5789 78.0977C41.2934 78.0977 41.7267 78.5662 41.7267 79.105V86.0506C41.7267 86.5894 41.2934 87.093 40.5789 87.093C39.8995 87.093 39.4662 86.5894 39.4662 86.0506V83.6026H36.7137Z" fill="#04DB8F"/>
<path d="M31.0522 86.0155C31.0522 86.6831 30.5251 87.0814 29.8809 87.0814C29.225 87.0814 28.7096 86.6831 28.7096 86.0155V80.4871H27.2221C26.6131 80.4871 26.1797 79.96 26.1797 79.3627C26.1797 78.7653 26.6131 78.2148 27.2221 78.2148H32.4694C33.0785 78.2148 33.5236 78.7653 33.5236 79.3627C33.5236 79.96 33.0785 80.4871 32.4694 80.4871H31.0522V86.0155Z" fill="#04DB8F"/>
<path d="M22.9233 86.0152C22.9233 86.6829 22.3963 87.0811 21.7521 87.0811C21.0961 87.0811 20.5808 86.6829 20.5808 86.0152L20.5925 83.251L18.2265 79.9715C17.8517 79.4561 17.9454 78.8119 18.4256 78.3785C18.9176 77.9686 19.6555 78.0389 20.0303 78.5425L21.7521 80.8382L23.4855 78.5308C23.8603 78.0272 24.5982 77.9686 25.0785 78.3668C25.547 78.7768 25.6407 79.4678 25.2776 79.9715L22.9233 83.2276V86.0152Z" fill="#04DB8F"/>
<path d="M12.0535 83.6026V86.0506C12.0535 86.5894 11.6202 87.093 10.9057 87.093C10.2146 87.093 9.79297 86.5894 9.79297 86.0506V79.105C9.79297 78.5662 10.2146 78.0977 10.9057 78.0977C11.6202 78.0977 12.0535 78.5662 12.0535 79.105V81.3304H14.806V79.105C14.806 78.5662 15.2394 78.0977 15.9187 78.0977C16.6332 78.0977 17.0666 78.5662 17.0666 79.105V86.0506C17.0666 86.5894 16.6332 87.093 15.9187 87.093C15.2394 87.093 14.806 86.5894 14.806 86.0506V83.6026H12.0535Z" fill="#04DB8F"/>
<path d="M5.37651 76.6562C7.36767 76.6562 8.5858 78.1672 8.5858 79.8538C8.5858 80.6737 8.23442 81.5405 7.60193 82.1612L8.76149 85.5345C8.79663 85.6399 8.82005 85.7922 8.82005 85.9327C8.82005 86.4715 8.44524 86.9049 7.96502 87.0689C7.8479 87.104 7.74248 87.1274 7.59022 87.1274C7.08657 87.1274 6.61806 86.8463 6.44237 86.331L5.30623 83.0397H3.0691C3.0691 84.047 3.08082 85.0309 3.08082 86.0381C3.08082 86.7995 2.50689 87.104 1.85098 87.104C1.2302 87.104 0.714844 86.6941 0.714844 86.0147V77.8744C0.714844 77.195 1.20678 76.6562 1.82755 76.6562H5.37651ZM5.24767 80.7557C5.78646 80.7557 6.17298 80.3458 6.17298 79.8538C6.17298 79.3502 5.78646 78.9519 5.24767 78.9519H3.05739V80.7557H5.24767Z" fill="#04DB8F"/>
<path d="M79.8287 6.07855C79.8287 9.25658 77.388 11.8329 74.3773 11.8329C71.3665 11.8329 68.9258 9.25658 68.9258 6.07855C68.9258 2.90052 71.3665 0.324219 74.3773 0.324219C77.388 0.324219 79.8287 2.90052 79.8287 6.07855Z" fill="#F9C0C6"/>
<path fill-rule="evenodd" clip-rule="evenodd" d="M56.5458 57.9428C50.886 52.4088 47.3548 44.9374 45.1856 39.7969C44.6653 38.5639 45.2641 37.1494 46.5029 36.6429L54.831 33.238C56.0695 32.7317 57.4799 33.3261 58.0045 34.5569C60.0222 39.2916 62.5773 44.4566 66.1792 47.9784C68.1424 49.898 70.212 51.1117 72.4981 51.587C74.3369 51.9693 76.7298 51.9607 79.8522 50.9749C81.1283 50.572 82.5458 51.1321 83.0669 52.3646L86.6138 60.7524C87.135 61.9848 86.5604 63.4151 85.299 63.8616C79.7884 65.8122 74.5926 66.2374 69.7653 65.2337C64.3081 64.0991 59.9476 61.2689 56.5458 57.9428Z" fill="#04DB8F"/>
<path fill-rule="evenodd" clip-rule="evenodd" d="M50.5943 2.74219C61.942 2.74219 68.8841 11.4626 68.8841 21.197C68.8841 25.929 68.8841 39.5842 50.1938 39.5842H37.4443C37.4443 42.491 37.461 45.364 37.4777 48.237C37.4944 51.11 37.5111 53.983 37.5111 56.8899C37.5111 61.2839 34.2403 63.0415 30.5022 63.0415C26.9644 63.0415 24.0273 60.6755 24.0273 56.7547V9.77259C24.0273 5.85179 26.8309 2.74219 30.3687 2.74219H50.5943ZM50.0516 26.4022C53.1222 26.4022 55.325 24.0362 55.325 21.197C55.325 18.2902 53.1222 15.9918 50.0516 15.9918H37.5691V26.4022H50.0516Z" fill="#04DB8F"/>
</svg>
