<svg width="32" height="33" viewBox="0 0 32 33" fill="none" xmlns="http://www.w3.org/2000/svg">
<path fill-rule="evenodd" clip-rule="evenodd" d="M28.1621 9.37299C28.1621 5.94429 25.542 3.29688 22.4597 3.29688L9.43093 3.29688C6.35502 3.29688 3.72852 5.9453 3.72852 9.37299L3.72852 23.0562C3.72852 26.4818 6.34577 29.1246 9.43825 29.1246H22.4597C25.5375 29.1246 28.1621 26.4818 28.1621 23.0562V9.37299ZM22.4597 0.296875C27.3411 0.296875 31.1621 4.43336 31.1621 9.37299V23.0562C31.1621 27.9988 27.3309 32.1246 22.4597 32.1246H9.43825C4.55245 32.1246 0.728516 27.9988 0.728516 23.0562V9.37299C0.728516 4.43234 4.55784 0.296875 9.43093 0.296875H22.4597ZM17.8555 15.3496H23.4844V18.3496H17.8555V24.1279H14.8555V18.3496H9.22981V15.3496H14.8555V9.57227H17.8555V15.3496Z" fill="#262626"/>
</svg>
