<svg width="33" height="31" viewBox="0 0 33 31" fill="none" xmlns="http://www.w3.org/2000/svg">
<path d="M15.9914 2.42763L2.57312 14.7101C2.3551 14.91 2.22852 15.1957 2.22852 15.4956L2.22852 28.0994C2.22852 28.6849 2.69267 29.1563 3.26935 29.1563L13.2838 29.1563C13.3049 29.1563 13.319 29.142 13.319 29.1205V23.7434C13.319 21.9296 14.62 20.3015 16.3993 20.1444C18.4036 19.9658 20.0844 21.5654 20.0844 23.5649V29.1205C20.0844 29.142 20.0985 29.1563 20.1196 29.1563H29.5785C30.1552 29.1563 30.6193 28.6849 30.6193 28.0994V15.4813C30.6193 15.1885 30.4998 14.91 30.2888 14.7101L17.3979 2.44191C17.0041 2.06344 16.3923 2.06344 15.9914 2.42763Z" stroke="#262626" stroke-width="3" stroke-miterlimit="10"/>
</svg>
