<svg width="18" height="32" viewBox="0 0 18 32" fill="none" xmlns="http://www.w3.org/2000/svg">
<path d="M1.63867 21.4238L4.27896 30.2382C4.47242 30.8841 5.28116 31.0957 5.76622 30.6274L12.6855 23.9473" stroke="white" stroke-width="2"/>
<path fill-rule="evenodd" clip-rule="evenodd" d="M10.2878 2.24017L13.2926 2.93419C14.907 3.30705 15.9134 4.91801 15.5406 6.53237L15.1277 8.32011C13.724 7.11441 11.9492 6.43886 10.2759 6.12916C8.832 5.86194 7.41942 5.85906 6.32899 6.04935L6.68959 4.48809C7.06245 2.87374 8.6734 1.86731 10.2878 2.24017ZM14.8532 9.42804L14.8773 9.40388L11.6824 23.2368C10.2996 22.0978 8.58083 21.453 6.95751 21.1526C5.44271 20.8722 3.96235 20.8828 2.8523 21.1022L6.08087 7.12361C7.03848 6.87927 8.51878 6.82095 10.0939 7.11246C11.8166 7.4313 13.5807 8.15554 14.8532 9.42804ZM11.2298 24.165C9.98865 23.069 8.36453 22.43 6.77553 22.1359C5.14415 21.834 3.61447 21.9073 2.6619 22.1739L0.679688 21.7133C0.700276 21.5635 0.72781 21.4132 0.762511 21.263L4.74089 4.03801C5.36232 1.34742 8.04725 -0.329962 10.7378 0.291472L13.7427 0.985496C16.4333 1.60693 18.1107 4.29186 17.4893 6.98245L13.5109 24.2074C13.4748 24.3635 13.4318 24.5162 13.3823 24.6652L11.2298 24.165Z" fill="white"/>
</svg>
