<svg width="32" height="31" viewBox="0 0 32 31" fill="none" xmlns="http://www.w3.org/2000/svg">
<path d="M15.7258 2.42861L2.30749 14.7111C2.08948 14.911 1.96289 15.1966 1.96289 15.4966L1.96289 28.1004C1.96289 28.6859 2.42705 29.1572 3.00372 29.1572L13.0182 29.1572C13.0393 29.1572 13.0534 29.1429 13.0534 29.1215V23.7444C13.0534 21.9306 14.3544 20.3024 16.1337 20.1453C18.138 19.9668 19.8188 21.5664 19.8188 23.5659V29.1215C19.8188 29.1429 19.8328 29.1572 19.8539 29.1572H29.3129C29.8895 29.1572 30.3537 28.6859 30.3537 28.1004V15.4823C30.3537 15.1895 30.2341 14.911 30.0232 14.7111L17.1323 2.44289C16.7385 2.06442 16.1266 2.06442 15.7258 2.42861Z" stroke="#262626" stroke-width="3" stroke-miterlimit="10"/>
</svg>
