<svg width="41" height="41" viewBox="0 0 41 41" fill="none" xmlns="http://www.w3.org/2000/svg">
<path fill-rule="evenodd" clip-rule="evenodd" d="M13.9609 20.5171C13.9609 16.8131 16.9722 13.8125 20.6845 13.8125C24.3968 13.8125 27.408 16.8131 27.408 20.5171C27.408 24.2212 24.3968 27.2217 20.6845 27.2217C16.9722 27.2217 13.9609 24.2212 13.9609 20.5171ZM20.6845 15.6068C17.9626 15.6068 15.7582 17.8062 15.7582 20.5171C15.7582 23.228 17.9626 25.4274 20.6845 25.4274C23.4064 25.4274 25.6107 23.228 25.6107 20.5171C25.6107 17.8062 23.4064 15.6068 20.6845 15.6068Z" fill="black"/>
<path fill-rule="evenodd" clip-rule="evenodd" d="M17.8385 0.930254C17.9425 0.536271 18.2994 0.261719 18.7075 0.261719H22.502C22.9103 0.261719 23.2673 0.536469 23.3711 0.930644L24.466 5.08607L28.8004 6.86328L31.7524 4.3481C32.1089 4.0444 32.6393 4.06513 32.9708 4.39571L36.8541 8.26736C37.185 8.5973 37.2071 9.1255 36.9049 9.48185L34.3947 12.4417L36.1435 16.652L40.3235 17.7117C40.722 17.8128 41.001 18.1709 41.001 18.5813L41.0008 22.4088C41.0008 22.8174 40.7242 23.1743 40.3281 23.2771L36.1282 24.3666L34.3779 28.5805L36.9042 31.5514C37.2071 31.9077 37.1853 32.4366 36.8541 32.7668L32.9708 36.6385C32.6334 36.9749 32.0915 36.9896 31.7362 36.6719L31.7084 36.6471L31.6275 36.575C31.5572 36.5124 31.4557 36.4223 31.3311 36.3121C31.0819 36.0917 30.7411 35.7918 30.3739 35.4731C29.8221 34.9942 29.2371 34.4962 28.8126 34.1567L24.5616 35.9119L23.4987 40.0959C23.3976 40.4938 23.0389 40.7725 22.6277 40.7725H18.7444C18.333 40.7725 17.9741 40.4935 17.8732 40.0953L16.8134 35.9112L12.6668 34.2105L9.60351 36.6995C9.2463 36.9897 8.72712 36.9634 8.40124 36.6385L4.51798 32.7668C4.18063 32.4305 4.1651 31.8897 4.48259 31.5346L7.04703 28.6665L5.27383 24.4726L1.03336 23.3185C0.64236 23.212 0.371094 22.8575 0.371094 22.4529V18.5813C0.371094 18.1642 0.658935 17.8022 1.06576 17.7075L5.21939 16.7411L6.94182 12.5189L4.4559 9.46832C4.16501 9.11135 4.19182 8.59254 4.51798 8.26736L8.40124 4.39571C8.73766 4.0603 9.27757 4.04454 9.63305 4.35977L12.5189 6.91889L16.7243 5.15147L17.8385 0.930254ZM32.2996 34.7719L34.9977 32.0819L32.6524 29.3238C32.4343 29.0672 32.3783 28.7104 32.5074 28.3995L34.6393 23.2669C34.7472 23.0072 34.9708 22.8129 35.2434 22.7422L39.2035 21.7149L39.2036 19.279L35.2647 18.2804C34.99 18.2108 34.7644 18.0159 34.6558 17.7545L32.5245 12.6234C32.3955 12.313 32.4512 11.9566 32.6687 11.7001L34.9984 8.95306L32.288 6.25072L29.5499 8.58364C29.2937 8.80194 28.9367 8.85887 28.6251 8.73111L23.3693 6.57613C23.1086 6.46926 22.9133 6.24653 22.8416 5.97447L21.8092 2.056H19.4L18.3496 6.03563C18.2785 6.30484 18.0863 6.52586 17.8293 6.63388L12.6943 8.792C12.3753 8.92605 12.0075 8.86533 11.7488 8.63588L9.07233 6.26246L6.36223 8.96445L8.672 11.7989C8.87918 12.0531 8.931 12.3999 8.80717 12.7034L6.70853 17.8478C6.59852 18.1174 6.36428 18.317 6.08024 18.3831L2.16839 19.2934V21.7676L6.16819 22.8563C6.43435 22.9287 6.65244 23.1192 6.75972 23.373L8.92394 28.4917C9.05895 28.811 8.99763 29.1794 8.76643 29.438L6.38923 32.0966L9.09771 34.797L11.9468 32.4821C12.2022 32.2746 12.5509 32.2232 12.8555 32.3481L17.9151 34.4233C18.1785 34.5313 18.375 34.7576 18.4448 35.0332L19.4441 38.9782H21.9285L22.9303 35.0344C23.0001 34.7597 23.1957 34.5341 23.4579 34.4259L28.6044 32.3009C28.8907 32.1827 29.2178 32.2201 29.47 32.3998C29.9414 32.7357 30.8239 33.4861 31.5531 34.119C31.825 34.355 32.0824 34.5806 32.2996 34.7719Z" fill="black"/>
</svg>
