<svg width="31" height="30" viewBox="0 0 31 30" fill="none" xmlns="http://www.w3.org/2000/svg">
<path fill-rule="evenodd" clip-rule="evenodd" d="M22.3112 8.88411C22.3112 12.8355 19.108 16.0387 15.1566 16.0387C11.2052 16.0387 8.00195 12.8355 8.00195 8.88411C8.00195 4.93272 11.2052 1.72949 15.1566 1.72949C19.108 1.72949 22.3112 4.93272 22.3112 8.88411ZM6.66571 19.9795C3.88258 19.9795 1.60547 22.2566 1.60547 25.0397V27.7737H28.7129V25.0397C28.7129 22.2566 26.4358 19.9795 23.6527 19.9795H6.66571Z" fill="#262626"/>
<path d="M1.60547 27.7737H0.105469V29.2737H1.60547V27.7737ZM28.7129 27.7737V29.2737H30.2129V27.7737H28.7129ZM15.1566 17.5387C19.9364 17.5387 23.8112 13.6639 23.8112 8.88411H20.8112C20.8112 12.0071 18.2795 14.5387 15.1566 14.5387V17.5387ZM6.50195 8.88411C6.50195 13.6639 10.3768 17.5387 15.1566 17.5387V14.5387C12.0336 14.5387 9.50195 12.0071 9.50195 8.88411H6.50195ZM15.1566 0.229492C10.3768 0.229492 6.50195 4.1043 6.50195 8.88411H9.50195C9.50195 5.76115 12.0336 3.22949 15.1566 3.22949V0.229492ZM23.8112 8.88411C23.8112 4.1043 19.9364 0.229492 15.1566 0.229492V3.22949C18.2795 3.22949 20.8112 5.76115 20.8112 8.88411H23.8112ZM3.10547 25.0397C3.10547 23.085 4.711 21.4795 6.66571 21.4795V18.4795C3.05415 18.4795 0.105469 21.4282 0.105469 25.0397H3.10547ZM3.10547 27.7737V25.0397H0.105469V27.7737H3.10547ZM28.7129 26.2737H1.60547V29.2737H28.7129V26.2737ZM27.2129 25.0397V27.7737H30.2129V25.0397H27.2129ZM23.6527 21.4795C25.6074 21.4795 27.2129 23.085 27.2129 25.0397H30.2129C30.2129 21.4282 27.2642 18.4795 23.6527 18.4795V21.4795ZM6.66571 21.4795H23.6527V18.4795H6.66571V21.4795Z" fill="#262626"/>
</svg>
