<svg width="111" height="88" viewBox="0 0 111 88" fill="none" xmlns="http://www.w3.org/2000/svg">
<path d="M105.035 87.1843C104.461 87.1843 104.074 86.6807 104.074 86.1419V86.0599L104.098 79.6413C104.086 79.5828 104.086 79.5359 104.086 79.4774C104.086 78.9386 104.472 78.4349 105.046 78.4349H109.731C110.294 78.4349 110.704 78.9386 110.704 79.4774C110.704 80.0279 110.294 80.5315 109.731 80.5315H106.417L106.405 81.5974H108.092C108.654 81.5974 109.064 82.101 109.064 82.6515C109.064 83.202 108.654 83.694 108.092 83.694H106.405L106.393 85.0878H109.731C110.294 85.0878 110.704 85.5914 110.704 86.1419C110.704 86.6807 110.294 87.1843 109.731 87.1843H105.035Z" fill="#04DB8F"/>
<path d="M100.669 86.2356C100.669 86.9032 100.142 87.3015 99.4981 87.3015C98.8422 87.3015 98.3268 86.9032 98.3268 86.2356V80.7072H96.8393C96.2302 80.7072 95.7969 80.1801 95.7969 79.5828C95.7969 78.9854 96.2302 78.4349 96.8393 78.4349H102.087C102.696 78.4349 103.141 78.9854 103.141 79.5828C103.141 80.1801 102.696 80.7072 102.087 80.7072H100.669V86.2356Z" fill="#04DB8F"/>
<path d="M92.6264 86.2356C92.6264 86.9032 92.0993 87.3015 91.4551 87.3015C90.7992 87.3015 90.2839 86.9032 90.2839 86.2356V80.7072H88.7963C88.1873 80.7072 87.7539 80.1801 87.7539 79.5828C87.7539 78.9854 88.1873 78.4349 88.7963 78.4349H94.0436C94.6527 78.4349 95.0978 78.9854 95.0978 79.5828C95.0978 80.1801 94.6527 80.7072 94.0436 80.7072H92.6264V86.2356Z" fill="#04DB8F"/>
<path d="M81.3784 87.1843C80.8045 87.1843 80.418 86.6807 80.418 86.1419V86.0599L80.4414 79.6413C80.4297 79.5828 80.4297 79.5359 80.4297 79.4774C80.4297 78.9386 80.8162 78.4349 81.3901 78.4349H86.0752C86.6374 78.4349 87.0474 78.9386 87.0474 79.4774C87.0474 80.0279 86.6374 80.5315 86.0752 80.5315H82.7605L82.7488 81.5974H84.4354C84.9976 81.5974 85.4076 82.101 85.4076 82.6515C85.4076 83.202 84.9976 83.694 84.4354 83.694H82.7488L82.7371 85.0878H86.0752C86.6374 85.0878 87.0474 85.5914 87.0474 86.1419C87.0474 86.6807 86.6374 87.1843 86.0752 87.1843H81.3784Z" fill="#04DB8F"/>
<path d="M74.5542 87.1959C73.9451 87.1959 73.5117 86.6689 73.5117 86.0715V79.3484C73.5117 78.7042 74.0271 78.3177 74.683 78.3177C75.3272 78.3177 75.8543 78.7042 75.8543 79.3484L75.8308 84.9237H78.4896C79.0987 84.9237 79.5438 85.4742 79.5438 86.0715C79.5438 86.6689 79.0987 87.1959 78.4896 87.1959H74.5542Z" fill="#04DB8F"/>
<path d="M72.5859 85.9896C72.703 86.5753 72.2345 87.1492 71.7191 87.278C71.1569 87.4069 70.5244 87.0789 70.3722 86.4933L70.1028 85.2752H67.4323L67.1629 86.4933C66.9989 87.0906 66.3547 87.3952 65.8159 87.278C65.2888 87.1375 64.8438 86.5987 64.9492 86.0014L66.4484 79.3602C66.5538 78.9034 67.034 78.4349 67.5962 78.4349H69.9388C70.5127 78.4349 70.9812 78.8917 71.0866 79.3602L72.5859 85.9896ZM69.6226 83.0849L69.0252 80.6252H68.5098L67.9125 83.0849H69.6226Z" fill="#04DB8F"/>
<path d="M61.0171 76.8652C63.0083 76.8652 64.2264 78.3879 64.2264 80.0745C64.2264 81.5972 63.0434 83.2487 61.0171 83.2487H58.7214V86.2588C58.7214 87.0202 58.1475 87.3247 57.4916 87.3247C56.8708 87.3247 56.3555 86.9148 56.3555 86.2354V78.0834C56.3555 77.404 56.8474 76.8652 57.4682 76.8652H61.0171ZM60.8883 80.9647C61.4271 80.9647 61.8136 80.5665 61.8136 80.0745C61.8136 79.5709 61.4271 79.1609 60.8883 79.1609H58.698V80.9647H60.8883Z" fill="#04DB8F"/>
<path d="M48.0207 83.7647C47.5054 84.362 46.6152 84.4206 46.053 83.7647L44.9988 82.5348V86.2712C44.9988 86.81 44.5655 87.3136 43.8627 87.3136C43.1717 87.3136 42.75 86.81 42.75 86.2712V79.3724C42.75 78.8336 43.1717 78.3417 43.8744 78.3417C44.2961 78.3417 44.6123 78.5174 44.8817 78.8453L47.0369 81.3636L49.2154 78.775C49.438 78.5174 49.8128 78.3417 50.2227 78.3417C50.9138 78.3534 51.3354 78.8453 51.3354 79.3724V86.2712C51.3354 86.81 50.9021 87.3136 50.1993 87.3136C49.5082 87.3136 49.0866 86.81 49.0866 86.2712V82.5348L48.0207 83.7647Z" fill="#04DB8F"/>
<path d="M36.5691 83.8227V86.2706C36.5691 86.8094 36.1358 87.3131 35.4213 87.3131C34.7303 87.3131 34.3086 86.8094 34.3086 86.2706V79.325C34.3086 78.7862 34.7303 78.3177 35.4213 78.3177C36.1358 78.3177 36.5691 78.7862 36.5691 79.325V81.5504H39.3216V79.325C39.3216 78.7862 39.755 78.3177 40.4344 78.3177C41.1488 78.3177 41.5822 78.7862 41.5822 79.325V86.2706C41.5822 86.8094 41.1488 87.3131 40.4344 87.3131C39.755 87.3131 39.3216 86.8094 39.3216 86.2706V83.8227H36.5691Z" fill="#04DB8F"/>
<path d="M30.9077 86.2356C30.9077 86.9032 30.3806 87.3015 29.7364 87.3015C29.0805 87.3015 28.5651 86.9032 28.5651 86.2356V80.7072H27.0776C26.4685 80.7072 26.0352 80.1801 26.0352 79.5828C26.0352 78.9854 26.4685 78.4349 27.0776 78.4349H32.3249C32.934 78.4349 33.379 78.9854 33.379 79.5828C33.379 80.1801 32.934 80.7072 32.3249 80.7072H30.9077V86.2356Z" fill="#04DB8F"/>
<path d="M22.7788 86.2356C22.7788 86.9032 22.2517 87.3014 21.6075 87.3014C20.9516 87.3014 20.4362 86.9032 20.4362 86.2356L20.448 83.4714L18.082 80.1918C17.7072 79.6765 17.8009 79.0323 18.2811 78.5989C18.773 78.1889 19.5109 78.2592 19.8858 78.7629L21.6075 81.0586L23.341 78.7511C23.7158 78.2475 24.4537 78.1889 24.9339 78.5872C25.4024 78.9971 25.4961 79.6882 25.1331 80.1918L22.7788 83.448V86.2356Z" fill="#04DB8F"/>
<path d="M11.909 83.8227V86.2706C11.909 86.8094 11.4756 87.3131 10.7611 87.3131C10.0701 87.3131 9.64844 86.8094 9.64844 86.2706V79.325C9.64844 78.7862 10.0701 78.3177 10.7611 78.3177C11.4756 78.3177 11.909 78.7862 11.909 79.325V81.5504H14.6615V79.325C14.6615 78.7862 15.0949 78.3177 15.7742 78.3177C16.4887 78.3177 16.922 78.7862 16.922 79.325V86.2706C16.922 86.8094 16.4887 87.3131 15.7742 87.3131C15.0949 87.3131 14.6615 86.8094 14.6615 86.2706V83.8227H11.909Z" fill="#04DB8F"/>
<path d="M5.23198 76.8776C7.22314 76.8776 8.44127 78.3885 8.44127 80.0751C8.44127 80.895 8.08988 81.7618 7.4574 82.3825L8.61696 85.7558C8.65209 85.8612 8.67552 86.0135 8.67552 86.154C8.67552 86.6928 8.30071 87.1262 7.82049 87.2902C7.70336 87.3253 7.59795 87.3487 7.44568 87.3487C6.94204 87.3487 6.47353 87.0676 6.29784 86.5523L5.1617 83.261H2.92457C2.92457 84.2683 2.93628 85.2522 2.93628 86.2595C2.93628 87.0208 2.36236 87.3253 1.70645 87.3253C1.08567 87.3253 0.570312 86.9154 0.570312 86.236V78.0957C0.570312 77.4163 1.06225 76.8776 1.68302 76.8776H5.23198ZM5.10314 80.977C5.64192 80.977 6.02844 80.5671 6.02844 80.0751C6.02844 79.5715 5.64192 79.1733 5.10314 79.1733H2.91286V80.977H5.10314Z" fill="#04DB8F"/>
<path d="M79.6842 6.29925C79.6842 9.47728 77.2435 12.0536 74.2327 12.0536C71.222 12.0536 68.7812 9.47728 68.7812 6.29925C68.7812 3.12122 71.222 0.544922 74.2327 0.544922C77.2435 0.544922 79.6842 3.12122 79.6842 6.29925Z" fill="#F9C0C6"/>
<path fill-rule="evenodd" clip-rule="evenodd" d="M56.4013 58.1653C50.7415 52.6313 47.2102 45.1599 45.0411 40.0194C44.5208 38.7864 45.1196 37.3719 46.3583 36.8654L54.6865 33.4605C55.9249 32.9542 57.3354 33.5486 57.8599 34.7794C59.8777 39.5141 62.4327 44.679 66.0347 48.2009C67.9979 50.1205 70.0674 51.3341 72.3535 51.8095C74.1924 52.1918 76.5852 52.1832 79.7077 51.1974C80.9837 50.7945 82.4012 51.3546 82.9224 52.587L86.4693 60.9749C86.9904 62.2073 86.4159 63.6376 85.1545 64.0841C79.6438 66.0346 74.4481 66.4599 69.6207 65.4562C64.1636 64.3215 59.803 61.4914 56.4013 58.1653Z" fill="#04DB8F"/>
<path fill-rule="evenodd" clip-rule="evenodd" d="M50.4498 2.96454C61.7975 2.96454 68.7396 11.6849 68.7396 21.4194C68.7396 26.1514 68.7396 39.8066 50.0493 39.8066H37.2998C37.2998 42.7134 37.3165 45.5864 37.3332 48.4594C37.3499 51.3324 37.3665 54.2054 37.3665 57.1122C37.3665 61.5062 34.0957 63.2638 30.3577 63.2638C26.8199 63.2638 23.8828 60.8978 23.8828 56.977V9.99494C23.8828 6.07414 26.6864 2.96454 30.2242 2.96454H50.4498ZM49.9071 26.6246C52.9776 26.6246 55.1804 24.2586 55.1804 21.4194C55.1804 18.5126 52.9776 16.2142 49.9071 16.2142H37.4246V26.6246H49.9071Z" fill="#04DB8F"/>
<path d="M105.179 87.2818C104.605 87.2818 104.219 86.7782 104.219 86.2394V86.1574L104.242 79.7388C104.23 79.6803 104.23 79.6334 104.23 79.5748C104.23 79.0361 104.617 78.5324 105.191 78.5324H109.876C110.438 78.5324 110.848 79.0361 110.848 79.5748C110.848 80.1253 110.438 80.629 109.876 80.629H106.561L106.55 81.6948H108.236C108.798 81.6948 109.208 82.1985 109.208 82.749C109.208 83.2995 108.798 83.7914 108.236 83.7914H106.55L106.538 85.1852H109.876C110.438 85.1852 110.848 85.6889 110.848 86.2394C110.848 86.7782 110.438 87.2818 109.876 87.2818H105.179Z" fill="#04DB8F"/>
<path d="M100.814 86.3331C100.814 87.0007 100.287 87.3989 99.6426 87.3989C98.9867 87.3989 98.4714 87.0007 98.4714 86.3331V80.8047H96.9838C96.3748 80.8047 95.9414 80.2776 95.9414 79.6803C95.9414 79.0829 96.3748 78.5324 96.9838 78.5324H102.231C102.84 78.5324 103.285 79.0829 103.285 79.6803C103.285 80.2776 102.84 80.8047 102.231 80.8047H100.814V86.3331Z" fill="#04DB8F"/>
<path d="M92.7709 86.3331C92.7709 87.0007 92.2439 87.3989 91.5997 87.3989C90.9437 87.3989 90.4284 87.0007 90.4284 86.3331V80.8047H88.9409C88.3318 80.8047 87.8984 80.2776 87.8984 79.6803C87.8984 79.0829 88.3318 78.5324 88.9409 78.5324H94.1882C94.7972 78.5324 95.2423 79.0829 95.2423 79.6803C95.2423 80.2776 94.7972 80.8047 94.1882 80.8047H92.7709V86.3331Z" fill="#04DB8F"/>
<path d="M81.5229 87.2818C80.949 87.2818 80.5625 86.7782 80.5625 86.2394V86.1574L80.5859 79.7388C80.5742 79.6803 80.5742 79.6334 80.5742 79.5748C80.5742 79.0361 80.9607 78.5324 81.5347 78.5324H86.2198C86.782 78.5324 87.1919 79.0361 87.1919 79.5748C87.1919 80.1253 86.782 80.629 86.2198 80.629H82.905L82.8933 81.6948H84.58C85.1422 81.6948 85.5521 82.1985 85.5521 82.749C85.5521 83.2995 85.1422 83.7914 84.58 83.7914H82.8933L82.8816 85.1852H86.2198C86.782 85.1852 87.1919 85.6889 87.1919 86.2394C87.1919 86.7782 86.782 87.2818 86.2198 87.2818H81.5229Z" fill="#04DB8F"/>
<path d="M74.6987 87.2934C74.0896 87.2934 73.6562 86.7663 73.6562 86.169V79.4459C73.6562 78.8017 74.1716 78.4152 74.8275 78.4152C75.4717 78.4152 75.9988 78.8017 75.9988 79.4459L75.9754 85.0211H78.6342C79.2432 85.0211 79.6883 85.5716 79.6883 86.169C79.6883 86.7663 79.2432 87.2934 78.6342 87.2934H74.6987Z" fill="#04DB8F"/>
<path d="M72.7304 86.0871C72.8475 86.6728 72.379 87.2467 71.8637 87.3755C71.3014 87.5044 70.669 87.1764 70.5167 86.5908L70.2473 85.3726H67.5768L67.3074 86.5908C67.1434 87.1881 66.4992 87.4927 65.9604 87.3755C65.4334 87.235 64.9883 86.6962 65.0937 86.0988L66.5929 79.4577C66.6983 79.0009 67.1786 78.5324 67.7408 78.5324H70.0833C70.6573 78.5324 71.1258 78.9892 71.2312 79.4577L72.7304 86.0871ZM69.7671 83.1824L69.1697 80.7227H68.6544L68.057 83.1824H69.7671Z" fill="#04DB8F"/>
<path d="M61.1617 76.9627C63.1528 76.9627 64.371 78.4854 64.371 80.172C64.371 81.6947 63.188 83.3461 61.1617 83.3461H58.866V86.3563C58.866 87.1176 58.292 87.4222 57.6361 87.4222C57.0154 87.4222 56.5 87.0122 56.5 86.3329V78.1808C56.5 77.5015 56.9919 76.9627 57.6127 76.9627H61.1617ZM61.0328 81.0622C61.5716 81.0622 61.9581 80.6639 61.9581 80.172C61.9581 79.6683 61.5716 79.2584 61.0328 79.2584H58.8425V81.0622H61.0328Z" fill="#04DB8F"/>
<path d="M48.1653 83.8621C47.6499 84.4594 46.7597 84.518 46.1975 83.8621L45.1434 82.6322V86.3686C45.1434 86.9074 44.71 87.411 44.0072 87.411C43.3162 87.411 42.8945 86.9074 42.8945 86.3686V79.4698C42.8945 78.931 43.3162 78.4391 44.019 78.4391C44.4406 78.4391 44.7569 78.6148 45.0263 78.9427L47.1814 81.461L49.36 78.8725C49.5825 78.6148 49.9573 78.4391 50.3673 78.4391C51.0583 78.4508 51.48 78.9427 51.48 79.4698V86.3686C51.48 86.9074 51.0466 87.411 50.3438 87.411C49.6528 87.411 49.2311 86.9074 49.2311 86.3686V82.6322L48.1653 83.8621Z" fill="#04DB8F"/>
<path d="M36.7137 83.9201V86.3681C36.7137 86.9069 36.2803 87.4105 35.5658 87.4105C34.8748 87.4105 34.4531 86.9069 34.4531 86.3681V79.4225C34.4531 78.8837 34.8748 78.4152 35.5658 78.4152C36.2803 78.4152 36.7137 78.8837 36.7137 79.4225V81.6479H39.4662V79.4225C39.4662 78.8837 39.8995 78.4152 40.5789 78.4152C41.2934 78.4152 41.7267 78.8837 41.7267 79.4225V86.3681C41.7267 86.9069 41.2934 87.4105 40.5789 87.4105C39.8995 87.4105 39.4662 86.9069 39.4662 86.3681V83.9201H36.7137Z" fill="#04DB8F"/>
<path d="M31.0522 86.3331C31.0522 87.0007 30.5251 87.3989 29.8809 87.3989C29.225 87.3989 28.7096 87.0007 28.7096 86.3331V80.8047H27.2221C26.6131 80.8047 26.1797 80.2776 26.1797 79.6803C26.1797 79.0829 26.6131 78.5324 27.2221 78.5324H32.4694C33.0785 78.5324 33.5236 79.0829 33.5236 79.6803C33.5236 80.2776 33.0785 80.8047 32.4694 80.8047H31.0522V86.3331Z" fill="#04DB8F"/>
<path d="M22.9233 86.3331C22.9233 87.0007 22.3963 87.3989 21.7521 87.3989C21.0961 87.3989 20.5808 87.0007 20.5808 86.3331L20.5925 83.5688L18.2265 80.2893C17.8517 79.7739 17.9454 79.1297 18.4256 78.6964C18.9176 78.2864 19.6555 78.3567 20.0303 78.8603L21.7521 81.156L23.4855 78.8486C23.8603 78.345 24.5982 78.2864 25.0785 78.6846C25.547 79.0946 25.6407 79.7856 25.2776 80.2893L22.9233 83.5454V86.3331Z" fill="#04DB8F"/>
<path d="M12.0535 83.9201V86.3681C12.0535 86.9069 11.6202 87.4105 10.9057 87.4105C10.2146 87.4105 9.79297 86.9069 9.79297 86.3681V79.4225C9.79297 78.8837 10.2146 78.4152 10.9057 78.4152C11.6202 78.4152 12.0535 78.8837 12.0535 79.4225V81.6479H14.806V79.4225C14.806 78.8837 15.2394 78.4152 15.9187 78.4152C16.6332 78.4152 17.0666 78.8837 17.0666 79.4225V86.3681C17.0666 86.9069 16.6332 87.4105 15.9187 87.4105C15.2394 87.4105 14.806 86.9069 14.806 86.3681V83.9201H12.0535Z" fill="#04DB8F"/>
<path d="M5.37651 76.9749C7.36767 76.9749 8.5858 78.4859 8.5858 80.1725C8.5858 80.9924 8.23442 81.8591 7.60193 82.4799L8.76149 85.8532C8.79663 85.9586 8.82005 86.1108 8.82005 86.2514C8.82005 86.7902 8.44524 87.2236 7.96502 87.3875C7.8479 87.4227 7.74248 87.4461 7.59022 87.4461C7.08657 87.4461 6.61806 87.165 6.44237 86.6496L5.30623 83.3584H3.0691C3.0691 84.3656 3.08082 85.3495 3.08082 86.3568C3.08082 87.1181 2.50689 87.4227 1.85098 87.4227C1.2302 87.4227 0.714844 87.0127 0.714844 86.3334V78.193C0.714844 77.5137 1.20678 76.9749 1.82755 76.9749H5.37651ZM5.24767 81.0744C5.78646 81.0744 6.17298 80.6644 6.17298 80.1725C6.17298 79.6688 5.78646 79.2706 5.24767 79.2706H3.05739V81.0744H5.24767Z" fill="#04DB8F"/>
<path d="M79.8287 6.39672C79.8287 9.57475 77.388 12.1511 74.3773 12.1511C71.3665 12.1511 68.9258 9.57475 68.9258 6.39672C68.9258 3.2187 71.3665 0.642395 74.3773 0.642395C77.388 0.642395 79.8287 3.2187 79.8287 6.39672Z" fill="#F9C0C6"/>
<path fill-rule="evenodd" clip-rule="evenodd" d="M56.5458 58.2628C50.886 52.7288 47.3548 45.2574 45.1856 40.1169C44.6653 38.8839 45.2641 37.4693 46.5029 36.9629L54.831 33.558C56.0695 33.0516 57.4799 33.646 58.0045 34.8769C60.0222 39.6115 62.5773 44.7765 66.1792 48.2984C68.1424 50.2179 70.212 51.4316 72.4981 51.9069C74.3369 52.2893 76.7298 52.2807 79.8522 51.2948C81.1283 50.892 82.5458 51.4521 83.0669 52.6845L86.6138 61.0723C87.135 62.3048 86.5604 63.735 85.299 64.1815C79.7884 66.1321 74.5926 66.5573 69.7653 65.5537C64.3081 64.419 59.9476 61.5889 56.5458 58.2628Z" fill="#04DB8F"/>
<path fill-rule="evenodd" clip-rule="evenodd" d="M50.5943 3.06201C61.942 3.06201 68.8841 11.7824 68.8841 21.5168C68.8841 26.2488 68.8841 39.9041 50.1938 39.9041H37.4443C37.4443 42.8109 37.461 45.6839 37.4777 48.5569C37.4944 51.4299 37.5111 54.3029 37.5111 57.2097C37.5111 61.6037 34.2403 63.3613 30.5022 63.3613C26.9644 63.3613 24.0273 60.9953 24.0273 57.0745V10.0924C24.0273 6.17162 26.8309 3.06201 30.3687 3.06201H50.5943ZM50.0516 26.722C53.1222 26.722 55.325 24.356 55.325 21.5168C55.325 18.61 53.1222 16.3116 50.0516 16.3116H37.5691V26.722H50.0516Z" fill="#04DB8F"/>
</svg>
