<svg width="31" height="39" viewBox="0 0 31 39" fill="none" xmlns="http://www.w3.org/2000/svg">
<path d="M29.4412 23.1103V30.1776C29.4412 31.4065 28.6523 32.4383 27.4977 32.8279L25.5542 33.5346C23.2661 34.305 20.9604 32.6141 20.9604 30.1776C20.9551 29.5518 21.1492 28.9404 21.5145 28.4322C21.8798 27.924 22.3973 27.5452 22.9923 27.3507L27.4977 25.7473C28.6523 25.3586 29.4412 24.3391 29.4412 23.1103ZM29.4412 23.1103V2.09029C29.4406 1.95503 29.4089 1.82173 29.3486 1.70065C29.2884 1.57957 29.2011 1.47395 29.0935 1.39193C28.986 1.3099 28.8611 1.25367 28.7283 1.22756C28.5956 1.20144 28.4587 1.20615 28.3281 1.24132L10.7128 5.97732C10.4055 6.06409 10.1353 6.24945 9.94379 6.50485C9.75224 6.76026 9.64995 7.07154 9.65267 7.39078V27.356M9.65267 27.356C9.65267 28.5848 8.86378 29.6175 7.70916 30.0062L3.11539 31.5964C1.88921 32.0098 1.17188 33.1176 1.17188 34.4233C1.17188 36.8598 3.5147 38.5356 5.76564 37.7803L7.70916 37.0736C8.86378 36.6849 9.65267 35.653 9.65267 34.4233V27.356Z" stroke="#04DB8F" stroke-width="2" stroke-linecap="round" stroke-linejoin="round"/>
</svg>
