<svg width="772" height="63" viewBox="0 0 772 63" fill="none" xmlns="http://www.w3.org/2000/svg">
<rect x="0.791016" y="0.929688" width="770.373" height="62" rx="31" fill="#E3E3E3"/>
<path d="M83.0879 26.2266C83.0332 25.6797 82.8379 25.207 82.502 24.8086C82.1738 24.4102 81.7324 24.1094 81.1777 23.9062C80.6309 23.7031 80.0176 23.6016 79.3379 23.6016C78.6035 23.6016 77.9551 23.7188 77.3926 23.9531C76.8301 24.1875 76.3926 24.5195 76.0801 24.9492C75.7676 25.3711 75.6113 25.8516 75.6113 26.3906C75.6191 27.1797 75.9434 27.7852 76.584 28.207C77.2246 28.6211 77.9941 28.9375 78.8926 29.1562L80.5801 29.625C81.8926 29.9609 83.0215 30.4766 83.9668 31.1719C84.9121 31.8672 85.3848 32.9141 85.3848 34.3125C85.3848 35.2422 85.1426 36.082 84.6582 36.832C84.1738 37.5742 83.4668 38.1602 82.5371 38.5898C81.6074 39.0195 80.502 39.2344 79.2207 39.2344C78.0176 39.2344 76.9707 39.0352 76.0801 38.6367C75.1895 38.2383 74.4863 37.6875 73.9707 36.9844C73.4629 36.2812 73.1738 35.4609 73.1035 34.5234H75.2598C75.3145 35.1328 75.5254 35.6484 75.8926 36.0703C76.2676 36.4922 76.7441 36.8086 77.3223 37.0195C77.9004 37.2227 78.5332 37.3203 79.2207 37.3125C80.002 37.3125 80.7051 37.1875 81.3301 36.9375C81.9551 36.6875 82.4434 36.332 82.7949 35.8711C83.1465 35.4023 83.3223 34.8672 83.3223 34.2656C83.3223 33.7422 83.1777 33.3047 82.8887 32.9531C82.5996 32.5938 82.2129 32.3086 81.7285 32.0977C81.252 31.8789 80.666 31.6719 79.9707 31.4766L77.8848 30.9141C76.4941 30.5078 75.4238 29.9453 74.6738 29.2266C73.9316 28.5078 73.5645 27.5938 73.5723 26.4844C73.5723 25.5469 73.8262 24.7148 74.334 23.9883C74.8418 23.2617 75.541 22.7031 76.4316 22.3125C77.3223 21.9219 78.3145 21.7266 79.4082 21.7266C80.4863 21.7266 81.459 21.9219 82.3262 22.3125C83.1934 22.7031 83.873 23.2422 84.3652 23.9297C84.8652 24.6094 85.127 25.375 85.1504 26.2266H83.0879ZM93.7341 39.1875C92.5232 39.1875 91.4685 38.918 90.5701 38.3789C89.6795 37.8398 88.992 37.0781 88.5076 36.0938C88.0232 35.1094 87.781 33.9688 87.781 32.6719C87.781 31.375 88.0232 30.2227 88.5076 29.2148C88.992 28.207 89.6677 27.4258 90.5349 26.8711C91.4021 26.3164 92.406 26.0391 93.5466 26.0391C94.5076 26.0391 95.4021 26.25 96.2302 26.6719C97.0662 27.0938 97.742 27.7812 98.2576 28.7344C98.7732 29.6875 99.031 30.9062 99.031 32.3906V33.2344H89.1873V31.5234H96.992C96.992 30.8203 96.8513 30.1875 96.5701 29.625C96.2888 29.0625 95.8865 28.6211 95.363 28.3008C94.8396 27.9805 94.2341 27.8203 93.5466 27.8203C92.7966 27.8203 92.1404 28.0039 91.5779 28.3711C91.0154 28.7383 90.5779 29.2305 90.2654 29.8477C89.9607 30.4648 89.8045 31.125 89.7966 31.8281V32.9766C89.7966 33.9141 89.9646 34.7148 90.3005 35.3789C90.6365 36.043 91.0974 36.5469 91.6834 36.8906C92.2693 37.2344 92.9529 37.4062 93.7341 37.4062C94.2185 37.4062 94.656 37.3398 95.0466 37.207C95.4373 37.0742 95.7654 36.9023 96.031 36.6914C96.3045 36.4727 96.5232 36.2266 96.6873 35.9531H98.8435C98.6404 36.6016 98.3045 37.1719 97.8357 37.6641C97.367 38.1484 96.781 38.5234 96.0779 38.7891C95.3748 39.0547 94.5935 39.1875 93.7341 39.1875ZM109.677 33.0234C109.224 33.0547 108.884 33.0781 108.658 33.0938C108.439 33.1094 108.107 33.1328 107.662 33.1641C107.209 33.1953 106.755 33.2266 106.302 33.2578C105.349 33.3203 104.611 33.5273 104.087 33.8789C103.572 34.2305 103.31 34.7422 103.302 35.4141C103.302 35.8516 103.419 36.2227 103.654 36.5273C103.888 36.832 104.201 37.0625 104.591 37.2188C104.99 37.3672 105.451 37.4375 105.974 37.4297C106.701 37.4297 107.33 37.2852 107.861 36.9961C108.4 36.707 108.81 36.3242 109.091 35.8477C109.373 35.3711 109.513 34.8594 109.513 34.3125V30.3516C109.513 29.8125 109.408 29.3516 109.197 28.9688C108.986 28.5781 108.662 28.2852 108.224 28.0898C107.794 27.8945 107.263 27.7969 106.63 27.7969C105.857 27.7969 105.224 27.957 104.732 28.2773C104.24 28.5898 103.919 29 103.771 29.5078H101.662C101.748 28.8281 102.013 28.2266 102.459 27.7031C102.912 27.1719 103.505 26.7617 104.24 26.4727C104.974 26.1836 105.802 26.0391 106.724 26.0391C107.459 26.0391 108.181 26.1484 108.892 26.3672C109.603 26.5859 110.216 27.0312 110.732 27.7031C111.248 28.3672 111.505 29.3125 111.505 30.5391V38.9297H109.513V37.1953H109.419C109.162 37.7266 108.712 38.1992 108.072 38.6133C107.439 39.0195 106.623 39.2266 105.623 39.2344C104.81 39.2266 104.076 39.0703 103.419 38.7656C102.763 38.4531 102.244 38.0039 101.861 37.418C101.478 36.8242 101.287 36.125 101.287 35.3203C101.287 34.0078 101.736 33.082 102.634 32.543C103.541 31.9961 104.685 31.6719 106.068 31.5703C106.435 31.5391 106.857 31.5117 107.334 31.4883C107.81 31.457 108.279 31.4297 108.74 31.4062C109.044 31.3984 109.349 31.3906 109.654 31.3828L109.677 33.0234ZM114.98 26.2031H116.925V28.1484H117.066C117.292 27.5078 117.706 26.9922 118.308 26.6016C118.917 26.2031 119.597 26 120.347 25.9922C120.98 26.0156 121.331 26.0312 121.402 26.0391V28.0781C121.269 28.0469 121.089 28.0156 120.863 27.9844C120.636 27.9531 120.409 27.9375 120.183 27.9375C119.581 27.9375 119.038 28.0664 118.554 28.3242C118.077 28.582 117.699 28.9375 117.417 29.3906C117.136 29.8438 116.995 30.3516 116.995 30.9141V38.9297H114.98V26.2031ZM128.392 39.1875C127.212 39.1875 126.181 38.9102 125.298 38.3555C124.423 37.8008 123.751 37.0273 123.282 36.0352C122.814 35.0352 122.579 33.8984 122.579 32.625C122.579 31.3438 122.821 30.2031 123.306 29.2031C123.79 28.2031 124.466 27.4258 125.333 26.8711C126.208 26.3164 127.212 26.0391 128.345 26.0391C129.235 26.0391 130.048 26.2031 130.782 26.5312C131.517 26.8594 132.11 27.332 132.564 27.9492C133.024 28.5586 133.306 29.2578 133.407 30.0469H131.392C131.29 29.6406 131.106 29.2695 130.841 28.9336C130.583 28.5977 130.243 28.3281 129.821 28.125C129.407 27.9219 128.931 27.8203 128.392 27.8203C127.642 27.8203 126.981 28.0156 126.411 28.4062C125.841 28.7969 125.396 29.3516 125.075 30.0703C124.755 30.7812 124.595 31.6094 124.595 32.5547C124.595 33.5234 124.751 34.3711 125.064 35.0977C125.376 35.8242 125.817 36.3867 126.388 36.7852C126.958 37.1836 127.626 37.3828 128.392 37.3828C128.892 37.3828 129.349 37.293 129.763 37.1133C130.177 36.9336 130.521 36.6836 130.794 36.3633C131.075 36.0352 131.274 35.6406 131.392 35.1797H133.407C133.298 35.9453 133.024 36.6328 132.587 37.2422C132.149 37.8516 131.567 38.3281 130.841 38.6719C130.122 39.0156 129.306 39.1875 128.392 39.1875ZM138.147 38.9297H136.132V21.9609H138.147V28.1953H138.311C138.624 27.5078 139.085 26.9766 139.694 26.6016C140.304 26.2266 141.093 26.0391 142.061 26.0391C142.944 26.0391 143.71 26.2148 144.358 26.5664C145.014 26.918 145.518 27.4531 145.87 28.1719C146.221 28.8906 146.397 29.7812 146.397 30.8438V38.9297H144.382V30.9844C144.382 30.3203 144.264 29.7539 144.03 29.2852C143.796 28.8086 143.46 28.4492 143.022 28.207C142.585 27.9648 142.061 27.8438 141.452 27.8438C140.811 27.8438 140.245 27.9766 139.753 28.2422C139.261 28.5078 138.87 28.9023 138.581 29.4258C138.292 29.9492 138.147 30.5703 138.147 31.2891V38.9297Z" fill="#9A9A9A"/>
<path d="M38.35 39.1033C42.9284 39.1033 46.6399 35.3848 46.6399 30.7978C46.6399 26.2107 42.9284 22.4922 38.35 22.4922C33.7716 22.4922 30.0601 26.2107 30.0601 30.7978C30.0601 35.3848 33.7716 39.1033 38.35 39.1033Z" stroke="#262626" stroke-width="2" stroke-miterlimit="10"/>
<path d="M43.9053 36.9414L48.3293 41.3687" stroke="#262626" stroke-width="2" stroke-miterlimit="10" stroke-linecap="round"/>
</svg>
