<svg width="125" height="124" viewBox="0 0 125 124" fill="none" xmlns="http://www.w3.org/2000/svg">
<g id="&#237;&#148;&#132;&#235;&#161;&#156;&#237;&#149;&#132;&#236;&#130;&#172;&#236;&#167;&#132;">
<rect id="&#237;&#148;&#132;&#235;&#161;&#156;&#237;&#149;&#132; &#236;&#130;&#172;&#236;&#167;&#132; &#235;&#178;&#132;&#237;&#138;&#188;" x="0.833984" y="0.626709" width="123.291" height="123.291" rx="61.6455" fill="#04DB8F"/>
<g id="&#234;&#176;&#164;&#235;&#159;&#172;&#235;&#166;&#172; &#235;&#178;&#132;&#237;&#138;&#188;">
<path id="Vector" d="M82.7748 39.9451H42.1809C38.818 39.9451 36.0918 42.6712 36.0918 46.0342V78.5093C36.0918 81.8722 38.818 84.5984 42.1809 84.5984H82.7748C86.1377 84.5984 88.8639 81.8722 88.8639 78.5093V46.0342C88.8639 42.6712 86.1377 39.9451 82.7748 39.9451Z" stroke="black" stroke-width="3" stroke-linejoin="round"/>
<path id="Vector_2" d="M72.6277 56.183C74.8697 56.183 76.6871 54.3655 76.6871 52.1236C76.6871 49.8817 74.8697 48.0642 72.6277 48.0642C70.3858 48.0642 68.5684 49.8817 68.5684 52.1236C68.5684 54.3655 70.3858 56.183 72.6277 56.183Z" stroke="black" stroke-width="3" stroke-miterlimit="10"/>
<path id="Vector_3" d="M68.5669 72.3942L57.0662 60.915C56.3343 60.1833 55.3507 59.7588 54.3163 59.7281C53.2819 59.6974 52.2749 60.063 51.501 60.7501L36.0918 74.4505M58.4184 84.599L74.0649 68.9526C74.7804 68.2356 75.7382 67.812 76.75 67.7651C77.7619 67.7181 78.7548 68.0512 79.5336 68.6988L88.8639 76.4802" stroke="black" stroke-width="3" stroke-linecap="round" stroke-linejoin="round"/>
</g>
</g>
</svg>
