<svg width="120" height="95" viewBox="0 0 120 95" fill="none" xmlns="http://www.w3.org/2000/svg">
<g id="Group 5765">
<g id="Rhythm Palette">
<path id="Vector" d="M113.729 94.6044C113.109 94.6044 112.691 94.0601 112.691 93.4779V93.3893L112.717 86.4531C112.704 86.3898 112.704 86.3392 112.704 86.2759C112.704 85.6937 113.122 85.1494 113.742 85.1494H118.805C119.412 85.1494 119.855 85.6937 119.855 86.2759C119.855 86.8708 119.412 87.4151 118.805 87.4151H115.223L115.21 88.5669H117.033C117.64 88.5669 118.083 89.1111 118.083 89.706C118.083 90.3009 117.64 90.8325 117.033 90.8325H115.21L115.198 92.3387H118.805C119.412 92.3387 119.855 92.883 119.855 93.4779C119.855 94.0601 119.412 94.6044 118.805 94.6044H113.729Z" fill="#04DB8F"/>
<path id="Vector_2" d="M109.015 93.5791C109.015 94.3006 108.446 94.731 107.75 94.731C107.041 94.731 106.484 94.3006 106.484 93.5791V87.6049H104.876C104.218 87.6049 103.75 87.0353 103.75 86.3898C103.75 85.7443 104.218 85.1494 104.876 85.1494H110.547C111.205 85.1494 111.686 85.7443 111.686 86.3898C111.686 87.0353 111.205 87.6049 110.547 87.6049H109.015V93.5791Z" fill="#04DB8F"/>
<path id="Vector_3" d="M100.324 93.5791C100.324 94.3006 99.7544 94.731 99.0583 94.731C98.3495 94.731 97.7926 94.3006 97.7926 93.5791V87.6049H96.1851C95.5269 87.6049 95.0586 87.0353 95.0586 86.3898C95.0586 85.7443 95.5269 85.1494 96.1851 85.1494H101.856C102.514 85.1494 102.995 85.7443 102.995 86.3898C102.995 87.0353 102.514 87.6049 101.856 87.6049H100.324V93.5791Z" fill="#04DB8F"/>
<path id="Vector_4" d="M88.1668 94.6044C87.5466 94.6044 87.1289 94.0601 87.1289 93.4779V93.3893L87.1542 86.4531C87.1416 86.3898 87.1416 86.3392 87.1416 86.2759C87.1416 85.6937 87.5593 85.1494 88.1795 85.1494H93.2424C93.8499 85.1494 94.2929 85.6937 94.2929 86.2759C94.2929 86.8708 93.8499 87.4151 93.2424 87.4151H89.6604L89.6477 88.5669H91.4703C92.0779 88.5669 92.5209 89.1111 92.5209 89.706C92.5209 90.3009 92.0779 90.8325 91.4703 90.8325H89.6477L89.635 92.3387H93.2424C93.8499 92.3387 94.2929 92.883 94.2929 93.4779C94.2929 94.0601 93.8499 94.6044 93.2424 94.6044H88.1668Z" fill="#04DB8F"/>
<path id="Vector_5" d="M80.7906 94.6167C80.1324 94.6167 79.6641 94.0471 79.6641 93.4016V86.1363C79.6641 85.4402 80.221 85.0225 80.9298 85.0225C81.6259 85.0225 82.1955 85.4402 82.1955 86.1363L82.1702 92.1612H85.0434C85.7016 92.1612 86.1826 92.756 86.1826 93.4016C86.1826 94.0471 85.7016 94.6167 85.0434 94.6167H80.7906Z" fill="#04DB8F"/>
<path id="Vector_6" d="M78.6639 93.3133C78.7905 93.9462 78.2842 94.5664 77.7273 94.7056C77.1197 94.8449 76.4362 94.4905 76.2717 93.8576L75.9806 92.5413H73.0947L72.8036 93.8576C72.6264 94.5031 71.9302 94.8322 71.348 94.7056C70.7784 94.5538 70.2975 93.9715 70.4114 93.326L72.0315 86.1493C72.1454 85.6557 72.6644 85.1494 73.2719 85.1494H75.8034C76.4236 85.1494 76.9299 85.643 77.0438 86.1493L78.6639 93.3133ZM75.4616 90.1743L74.8161 87.5163H74.2592L73.6136 90.1743H75.4616Z" fill="#04DB8F"/>
<path id="Vector_7" d="M66.1626 83.4531C68.3143 83.4531 69.6307 85.0986 69.6307 86.9212C69.6307 88.5667 68.3523 90.3513 66.1626 90.3513H63.6818V93.6042C63.6818 94.427 63.0616 94.7561 62.3528 94.7561C61.6819 94.7561 61.125 94.313 61.125 93.5789V84.7695C61.125 84.0354 61.6566 83.4531 62.3274 83.4531H66.1626ZM66.0234 87.8832C66.6056 87.8832 67.0233 87.4528 67.0233 86.9212C67.0233 86.377 66.6056 85.9339 66.0234 85.9339H63.6565V87.8832H66.0234Z" fill="#04DB8F"/>
<path id="Vector_8" d="M52.1215 90.9086C51.5646 91.5542 50.6027 91.6175 49.9951 90.9086L48.856 89.5796V93.6173C48.856 94.1995 48.3877 94.7438 47.6282 94.7438C46.8814 94.7438 46.4258 94.1995 46.4258 93.6173V86.1622C46.4258 85.5799 46.8814 85.0483 47.6409 85.0483C48.0965 85.0483 48.4383 85.2382 48.7294 85.5926L51.0583 88.3139L53.4126 85.5167C53.6531 85.2382 54.0581 85.0483 54.5011 85.0483C55.2479 85.061 55.7036 85.5926 55.7036 86.1622V93.6173C55.7036 94.1995 55.2352 94.7438 54.4758 94.7438C53.729 94.7438 53.2734 94.1995 53.2734 93.6173V89.5796L52.1215 90.9086Z" fill="#04DB8F"/>
<path id="Vector_9" d="M39.7475 90.9714V93.6167C39.7475 94.199 39.2792 94.7432 38.5071 94.7432C37.7603 94.7432 37.3047 94.199 37.3047 93.6167V86.111C37.3047 85.5288 37.7603 85.0225 38.5071 85.0225C39.2792 85.0225 39.7475 85.5288 39.7475 86.111V88.5159H42.722V86.111C42.722 85.5288 43.1903 85.0225 43.9244 85.0225C44.6965 85.0225 45.1648 85.5288 45.1648 86.111V93.6167C45.1648 94.199 44.6965 94.7432 43.9244 94.7432C43.1903 94.7432 42.722 94.199 42.722 93.6167V90.9714H39.7475Z" fill="#04DB8F"/>
<path id="Vector_10" d="M33.6287 93.5791C33.6287 94.3006 33.0591 94.731 32.363 94.731C31.6542 94.731 31.0972 94.3006 31.0972 93.5791V87.6049H29.4898C28.8316 87.6049 28.3633 87.0353 28.3633 86.3898C28.3633 85.7443 28.8316 85.1494 29.4898 85.1494H35.1602C35.8184 85.1494 36.2994 85.7443 36.2994 86.3898C36.2994 87.0353 35.8184 87.6049 35.1602 87.6049H33.6287V93.5791Z" fill="#04DB8F"/>
<path id="Vector_11" d="M24.8402 93.5789C24.8402 94.3003 24.2706 94.7307 23.5745 94.7307C22.8657 94.7307 22.3087 94.3003 22.3087 93.5789L22.3214 90.5918L19.7646 87.0477C19.3596 86.4908 19.4609 85.7947 19.9798 85.3263C20.5114 84.8833 21.3088 84.9593 21.7139 85.5035L23.5745 87.9844L25.4477 85.4909C25.8528 84.9466 26.6502 84.8833 27.1691 85.3137C27.6754 85.7567 27.7767 86.5035 27.3843 87.0477L24.8402 90.5664V93.5789Z" fill="#04DB8F"/>
<path id="Vector_12" d="M13.0991 90.9714V93.6167C13.0991 94.199 12.6308 94.7432 11.8587 94.7432C11.1119 94.7432 10.6562 94.199 10.6562 93.6167V86.111C10.6562 85.5288 11.1119 85.0225 11.8587 85.0225C12.6308 85.0225 13.0991 85.5288 13.0991 86.111V88.5159H16.0736V86.111C16.0736 85.5288 16.5419 85.0225 17.276 85.0225C18.0481 85.0225 18.5164 85.5288 18.5164 86.111V93.6167C18.5164 94.199 18.0481 94.7432 17.276 94.7432C16.5419 94.7432 16.0736 94.199 16.0736 93.6167V90.9714H13.0991Z" fill="#04DB8F"/>
<path id="Vector_13" d="M5.88134 83.4658C8.03307 83.4658 9.34942 85.0986 9.34942 86.9212C9.34942 87.8073 8.96971 88.7439 8.28621 89.4147L9.53928 93.06C9.57725 93.1739 9.60257 93.3385 9.60257 93.4904C9.60257 94.0726 9.19754 94.5409 8.67859 94.7181C8.55202 94.7561 8.4381 94.7814 8.27356 94.7814C7.7293 94.7814 7.223 94.4776 7.03315 93.9207L5.80539 90.364H3.38786C3.38786 91.4525 3.40052 92.5158 3.40052 93.6043C3.40052 94.427 2.78031 94.7561 2.0715 94.7561C1.40067 94.7561 0.84375 94.3131 0.84375 93.579V84.7822C0.84375 84.0481 1.37535 83.4658 2.04619 83.4658H5.88134ZM5.74211 87.8959C6.32434 87.8959 6.74203 87.4529 6.74203 86.9212C6.74203 86.377 6.32434 85.9466 5.74211 85.9466H3.3752V87.8959H5.74211Z" fill="#04DB8F"/>
</g>
<g id="Group 5762">
<path id="Ellipse 32" d="M86.3368 7.19639C86.3368 10.6307 83.6993 13.4148 80.4458 13.4148C77.1922 13.4148 74.5547 10.6307 74.5547 7.19639C74.5547 3.76208 77.1922 0.978027 80.4458 0.978027C83.6993 0.978027 86.3368 3.76208 86.3368 7.19639Z" fill="#F9C0C6"/>
<path id="Vector 6 (Stroke)" fill-rule="evenodd" clip-rule="evenodd" d="M61.1777 63.2449C55.0615 57.2647 51.2454 49.1908 48.9013 43.6357C48.3391 42.3033 48.9862 40.7747 50.3249 40.2274L59.3246 36.5479C60.6629 36.0007 62.1871 36.6431 62.754 37.9732C64.9344 43.0896 67.6955 48.6711 71.5879 52.477C73.7094 54.5513 75.9459 55.8629 78.4163 56.3765C80.4034 56.7897 82.9893 56.7804 86.3635 55.7151C87.7424 55.2797 89.2743 55.885 89.8375 57.2168L93.6704 66.281C94.2336 67.6129 93.6127 69.1585 92.2495 69.641C86.2945 71.7488 80.6798 72.2084 75.4631 71.1238C69.5659 69.8976 64.8537 66.8392 61.1777 63.2449Z" fill="#04DB8F"/>
<path id="Subtract" fill-rule="evenodd" clip-rule="evenodd" d="M54.7484 3.59277C67.0112 3.59277 74.5131 13.0164 74.5131 23.5358C74.5131 28.6494 74.5131 43.4058 54.3156 43.4058H40.538C40.538 46.547 40.556 49.6517 40.5741 52.7564C40.5921 55.861 40.6101 58.9657 40.6101 62.1069C40.6101 66.8553 37.0756 68.7546 33.0361 68.7546C29.213 68.7546 26.0391 66.1978 26.0391 61.9608V11.1901C26.0391 6.95314 29.0687 3.59277 32.8918 3.59277H54.7484ZM54.1619 29.1608C57.4801 29.1608 59.8605 26.604 59.8605 23.5358C59.8605 20.3946 57.4801 17.9109 54.1619 17.9109H40.6729V29.1608H54.1619Z" fill="#04DB8F"/>
</g>
</g>
</svg>
